<svg xmlns="http://www.w3.org/2000/svg" width="149.896" height="150" viewBox="0 0 149.896 150">
  <g id="Layer_2" data-name="Layer 2" transform="translate(0.001)">
    <g id="Layer_1" data-name="Layer 1" transform="translate(-0.001)">
      <path id="Path_371" data-name="Path 371" d="M149.9,81.238l-.137,1.527A75.085,75.085,0,1,1,68.123.153L70.032,0l1.634,1.664,27.71,28.184.565.58,5.16,5.252,3.389,3.45,40.153,40.825Z" transform="translate(0.001)" fill="#47b490"/>
      <g id="Group_52" data-name="Group 52">
        <path id="Path_372" data-name="Path 372" d="M34.826,45.289l.321-4.2L19.193,42.479,17.33,66.525l16.015-1.4.275-4.183L22.613,61.9,23.1,56.22l10.138-.886.382-4.244-10.138.886.427-5.725Z" transform="translate(9.129 21.644)" fill="#f0ede6"/>
        <path id="Path_373" data-name="Path 373" d="M47.159,46.762a4.58,4.58,0,0,0-1.969-2.153,5.6,5.6,0,0,0-3.16-.534,6.977,6.977,0,0,0-3.45,1.206,6.214,6.214,0,0,0-2.153,2.672h-.214l.229-3.191-4.687.412L30.35,63.2l4.916-.427.824-10.428a4.718,4.718,0,0,1,.58-2.031,3.786,3.786,0,0,1,3.053-1.939,2.55,2.55,0,0,1,2.26.718,3.3,3.3,0,0,1,.656,2.519L41.8,62.3l4.931-.427L47.648,50.4A7.359,7.359,0,0,0,47.159,46.762Z" transform="translate(15.986 23.194)" fill="#f0ede6"/>
        <path id="Path_374" data-name="Path 374" d="M46.158,46.259,44.631,65.038a2.58,2.58,0,0,1-.611,1.527,2.489,2.489,0,0,1-1.695.657h-.657l-.229,4.015h.5a1.893,1.893,0,0,0,.412,0,9.97,9.97,0,0,0,3.695-.855,6.107,6.107,0,0,0,2.489-2.2A7.1,7.1,0,0,0,49.608,64.7l1.527-18.855Zm4.718-7.008a2.4,2.4,0,0,0-1.863-.565,2.947,2.947,0,0,0-1.893.9,2.626,2.626,0,0,0-.84,1.847,2.046,2.046,0,0,0,.733,1.71,2.473,2.473,0,0,0,1.878.58,3.054,3.054,0,0,0,1.893-.916,2.672,2.672,0,0,0,.824-1.847A2.107,2.107,0,0,0,50.875,39.251Z" transform="translate(21.828 20.368)" fill="#f0ede6"/>
        <path id="Path_375" data-name="Path 375" d="M66.192,46.34A6.26,6.26,0,0,0,63.4,43.287a7.97,7.97,0,0,0-4.58-.763,10.061,10.061,0,0,0-4.733,1.527,9.634,9.634,0,0,0-3.237,3.5,11.756,11.756,0,0,0-1.42,4.947,9.741,9.741,0,0,0,.7,4.794A6.107,6.107,0,0,0,52.91,60.34a8.168,8.168,0,0,0,4.58.779,10.229,10.229,0,0,0,4.718-1.527,9.923,9.923,0,0,0,3.252-3.5,11.588,11.588,0,0,0,1.4-4.931A9.664,9.664,0,0,0,66.192,46.34ZM61.9,51.424a9.3,9.3,0,0,1-.641,2.87,5.848,5.848,0,0,1-1.435,2.092,3.786,3.786,0,0,1-2.168.9,2.611,2.611,0,0,1-1.969-.519,3.328,3.328,0,0,1-1.069-1.8,8.244,8.244,0,0,1-.214-2.748,9.314,9.314,0,0,1,.656-2.824,5.5,5.5,0,0,1,1.374-2.122,3.511,3.511,0,0,1,2.214-.931,2.611,2.611,0,0,1,1.969.519,3.466,3.466,0,0,1,1.069,1.817A8.122,8.122,0,0,1,61.9,51.44Z" transform="translate(26.008 22.363)" fill="#f0ede6"/>
        <path id="Path_376" data-name="Path 376" d="M74.849,41.553l-2.855,8.168-1.893,5.4h-.183l-1.527-7.8-1.053-5.13-4.992.443h0l4.9,17.863-.366.794a2.794,2.794,0,0,1-1.527,1.527,4.168,4.168,0,0,1-2.168,0l-1.4,3.847a6.6,6.6,0,0,0,1.328.229,8.275,8.275,0,0,0,1.74,0,8.6,8.6,0,0,0,3.16-.855,7.252,7.252,0,0,0,2.275-1.847,10.687,10.687,0,0,0,1.527-2.672l4.046-9.664L80.284,41.08Z" transform="translate(32.543 21.638)" fill="#f0ede6"/>
        <path id="Path_377" data-name="Path 377" d="M79.813,56.267a2.534,2.534,0,0,0-1.939-.641A3.054,3.054,0,0,0,75.9,56.6a2.687,2.687,0,0,0-.443.611,2.6,2.6,0,0,0-.351,1.4A2.565,2.565,0,0,0,78,61.168a2.794,2.794,0,0,0,1.344-.5,3.176,3.176,0,0,0,1.008-1.1,3.314,3.314,0,0,0,.229-.534,2.534,2.534,0,0,0,.153-.9A2.473,2.473,0,0,0,79.813,56.267Zm-2.87-19.115-.824,16.794,4.214-.366,1.74-16.87Z" transform="translate(39.563 19.336)" fill="#f0ede6"/>
        <path id="Path_378" data-name="Path 378" d="M34.826,67.739l.321-4.2-15.97,1.4L17.33,88.975l16.015-1.4.275-4.2-11.008.962.427-5.725,10.138-.886.443-4.2-10.138.886.427-5.725Z" transform="translate(9.129 33.469)" fill="#f0ede6"/>
        <path id="Path_379" data-name="Path 379" d="M47.154,69.212a4.382,4.382,0,0,0-1.969-2.153,5.6,5.6,0,0,0-3.16-.534,6.977,6.977,0,0,0-3.45,1.206A6.107,6.107,0,0,0,36.421,70.4h-.2l.229-3.13-4.687.412-1.4,18.031,4.916-.443L36.1,74.906a4.718,4.718,0,0,1,.58-2.031,3.786,3.786,0,0,1,1.282-1.359,4,4,0,0,1,1.786-.6,2.6,2.6,0,0,1,2.26.733,3.282,3.282,0,0,1,.626,2.519l-.84,10.58,4.931-.427.916-11.481a7.359,7.359,0,0,0-.489-3.634Z" transform="translate(15.992 35.019)" fill="#f0ede6"/>
        <path id="Path_380" data-name="Path 380" d="M46.184,68.71,44.657,87.489a2.168,2.168,0,0,1-2.305,2.229H41.7l-.305,3.908h.5a1.893,1.893,0,0,0,.412,0A9.97,9.97,0,0,0,46,92.771a6.107,6.107,0,0,0,2.489-2.122,7.1,7.1,0,0,0,1.069-3.481l1.527-18.855ZM50.9,61.7a2.351,2.351,0,0,0-1.863-.565,2.947,2.947,0,0,0-1.893.9,2.626,2.626,0,0,0-.84,1.847,2.046,2.046,0,0,0,.733,1.71,2.4,2.4,0,0,0,1.878.565,2.947,2.947,0,0,0,1.893-.9,2.672,2.672,0,0,0,.824-1.847A2.107,2.107,0,0,0,50.9,61.7Z" transform="translate(21.803 32.192)" fill="#f0ede6"/>
        <path id="Path_381" data-name="Path 381" d="M66.192,68.8A6.26,6.26,0,0,0,63.4,65.75a8.092,8.092,0,0,0-4.58-.779A10.244,10.244,0,0,0,54.085,66.5a9.634,9.634,0,0,0-3.237,3.5,11.7,11.7,0,0,0-1.42,4.947,9.741,9.741,0,0,0,.7,4.794,6.107,6.107,0,0,0,2.779,3.053,8.168,8.168,0,0,0,4.58.779,10.245,10.245,0,0,0,4.718-1.527,9.8,9.8,0,0,0,3.252-3.5,11.45,11.45,0,0,0,1.4-4.916,9.649,9.649,0,0,0-.672-4.824ZM61.9,73.887a9.3,9.3,0,0,1-.641,2.87,5.664,5.664,0,0,1-1.435,2.031,3.71,3.71,0,0,1-2.168.916,2.672,2.672,0,0,1-1.969-.519,3.374,3.374,0,0,1-1.069-1.817,8.123,8.123,0,0,1-.214-2.733,9.313,9.313,0,0,1,.656-2.87,5.5,5.5,0,0,1,1.374-2.046,3.618,3.618,0,0,1,2.153-.916,2.611,2.611,0,0,1,1.969.534,3.466,3.466,0,0,1,1.069,1.817,8.122,8.122,0,0,1,.275,2.733Z" transform="translate(26.008 34.19)" fill="#f0ede6"/>
        <path id="Path_382" data-name="Path 382" d="M74.865,64,70.117,77.592h-.183L67.292,64.66l-4.992.427,4.916,17.954-.366.794a2.7,2.7,0,0,1-1.527,1.527,3.985,3.985,0,0,1-2.168,0l-1.4,3.832a5.588,5.588,0,0,0,1.328.244,11.023,11.023,0,0,0,1.74,0,8.306,8.306,0,0,0,3.16-.87,6.855,6.855,0,0,0,2.275-1.847,10.32,10.32,0,0,0,1.527-2.657L80.208,63.5Z" transform="translate(32.527 33.448)" fill="#f0ede6"/>
        <path id="Path_383" data-name="Path 383" d="M79.813,78.769a2.534,2.534,0,0,0-1.939-.641A2.916,2.916,0,0,0,75.9,79.1a2.748,2.748,0,0,0-.794,2.015A2.565,2.565,0,0,0,78,83.624a2.794,2.794,0,0,0,1.344-.5,3.481,3.481,0,0,0,1.008-1.1,2.962,2.962,0,0,0,.382-1.435A2.473,2.473,0,0,0,79.813,78.769Zm-2.87-19.237-.824,16.794,4.214-.382,1.74-16.794Z" transform="translate(39.563 31.156)" fill="#f0ede6"/>
        <path id="Path_384" data-name="Path 384" d="M34.826,22.983l.321-4.183-15.97,1.389L17.33,44.22l16.015-1.389.275-4.2-11.008.962.427-5.741,10.138-.886.443-4.183-10.138.886.427-5.725Z" transform="translate(9.129 9.903)" fill="#f0ede6"/>
        <path id="Path_385" data-name="Path 385" d="M47.154,24.458a4.412,4.412,0,0,0-1.969-2.137,5.481,5.481,0,0,0-3.16-.534,6.825,6.825,0,0,0-3.45,1.206,6.107,6.107,0,0,0-2.153,2.672h-.2l.229-3.176-4.687.412-1.4,18.015,4.916-.458L36.1,30.045a4.718,4.718,0,0,1,.58-2.031,3.71,3.71,0,0,1,1.282-1.374,4.183,4.183,0,0,1,1.786-.58,2.519,2.519,0,0,1,2.26.733,3.252,3.252,0,0,1,.626,2.519l-.84,10.58,4.931-.427.916-11.481a7.42,7.42,0,0,0-.489-3.527Z" transform="translate(15.992 11.451)" fill="#f0ede6"/>
        <path id="Path_386" data-name="Path 386" d="M46.184,23.973,44.657,42.737a2.2,2.2,0,0,1-2.305,2.244H41.7l-.305,3.908h.916A10.275,10.275,0,0,0,46,48.019,5.924,5.924,0,0,0,48.489,45.9a6.992,6.992,0,0,0,1.069-3.466l1.527-18.855ZM50.9,16.95a2.29,2.29,0,0,0-1.527-.58h-.305a3.053,3.053,0,0,0-1.893.9,2.672,2.672,0,0,0-.84,1.863,2,2,0,0,0,.733,1.695,2.412,2.412,0,0,0,1.878.58,2.809,2.809,0,0,0,1.527-.626l.321-.29a2.611,2.611,0,0,0,.824-1.832A2.137,2.137,0,0,0,50.9,16.95Z" transform="translate(21.803 8.623)" fill="#f0ede6"/>
        <path id="Path_387" data-name="Path 387" d="M66.193,24.063A6.107,6.107,0,0,0,63.4,21.01a8.092,8.092,0,0,0-4.58-.779,10.061,10.061,0,0,0-4.733,1.527,9.756,9.756,0,0,0-3.237,3.5,11.679,11.679,0,0,0-1.13,2.931,13.924,13.924,0,0,0-.29,2.015,9.771,9.771,0,0,0,.7,4.809,6.107,6.107,0,0,0,2.779,3.053,7.313,7.313,0,0,0,2.7.763,9.8,9.8,0,0,0,1.893,0A10.061,10.061,0,0,0,62.223,37.3a9.8,9.8,0,0,0,3.252-3.5,11.527,11.527,0,0,0,1.4-4.931,9.6,9.6,0,0,0-.687-4.809ZM61.9,29.147a9.4,9.4,0,0,1-.641,2.87,5.786,5.786,0,0,1-1.435,2.076,3.6,3.6,0,0,1-2.168.9,2.55,2.55,0,0,1-1.969-.519,3.267,3.267,0,0,1-1.069-1.8,8.122,8.122,0,0,1-.214-2.733,9.313,9.313,0,0,1,.656-2.87,5.5,5.5,0,0,1,1.374-2.092,3.618,3.618,0,0,1,2.153-.916,2.611,2.611,0,0,1,1.969.534,3.42,3.42,0,0,1,1.069,1.8A8.214,8.214,0,0,1,61.9,29.147Z" transform="translate(26.008 10.624)" fill="#f0ede6"/>
      </g>
      <path id="Path_388" data-name="Path 388" d="M67.4,20.13l2.519,12.321H70.1L72.559,25.4l3.389,3.45L71.811,38.955a10.321,10.321,0,0,1-1.527,2.657,7.053,7.053,0,0,1-2.275,1.847,8.305,8.305,0,0,1-3.16.855,9.527,9.527,0,0,1-1.74,0,7.726,7.726,0,0,1-1.328-.244l1.4-3.832a3.985,3.985,0,0,0,2.168,0,2.7,2.7,0,0,0,1.527-1.527l.366-.779L62.284,19.947l4.58-.4Z" transform="translate(32.543 10.298)" fill="#ae7838"/>
      <path id="Path_389" data-name="Path 389" d="M124.682,79.955,84.529,39.13l-3.389-3.45-5.16-5.252-.565-.58L47.7,1.664,46.07,0c0,.611-.153,1.206-.2,1.817a71.509,71.509,0,0,0-.382,7.512,72.52,72.52,0,0,0,1.695,15.664c.336,1.527.718,2.977,1.145,4.428a71.071,71.071,0,0,0,3.435,9.451,73.283,73.283,0,0,0,5.893,10.611A71.757,71.757,0,0,0,70.88,64.367a67.712,67.712,0,0,0,6.031,4.58Q78.7,70.2,80.574,71.329c1.252.748,2.519,1.527,3.817,2.137a67.664,67.664,0,0,0,6.672,3.053c1.649.672,3.344,1.267,5.053,1.817a72.4,72.4,0,0,0,21.725,3.344c2.26,0,4.58-.107,6.7-.305l1.389-.137Z" transform="translate(23.962)" fill="#fea200"/>
    </g>
  </g>
</svg>
