<svg xmlns="http://www.w3.org/2000/svg" viewBox="0 0 109.49 109.49"><defs><style>.cls-1{fill:#fff;}.cls-2{fill:#ddafca;}.cls-3{fill:#967436;}.cls-4{fill:#ecd7b8;}</style></defs><g id="Layer_2" data-name="Layer 2"><g id="Layer_1-2" data-name="Layer 1"><circle class="cls-1" cx="54.74" cy="54.74" r="54.74"/><circle class="cls-2" cx="54.74" cy="54.74" r="49.18"/><path class="cls-3" d="M39.81,21.26l-2.3-6.16,4.29-1.61.45,1.21-2.8,1.05L39.92,17l2.59-1L43,17.26l-2.59,1,.47,1.26,2.81-1,.45,1.21Z"/><path class="cls-3" d="M49,11.87l1.29,6.45L49,18.58l-3.31-3.21h0l.74,3.72-1.56.31L43.51,13l1.34-.27,3.28,3.21h0l-.74-3.72Z"/><path class="cls-3" d="M53.42,11.6,55,11.53l.19,4.54a2.1,2.1,0,0,1-.25,1.13,2,2,0,0,1-.81.78,2.71,2.71,0,0,1-1.21.31,2.77,2.77,0,0,1-1.13-.17,1.77,1.77,0,0,1-.82-.63,2,2,0,0,1-.35-1.14l1.58-.07a1.28,1.28,0,0,0,.12.43.57.57,0,0,0,.26.25A.74.74,0,0,0,53,17a.78.78,0,0,0,.38-.12.62.62,0,0,0,.22-.3,1.35,1.35,0,0,0,.07-.48Z"/><path class="cls-3" d="M62.56,15.51a3.88,3.88,0,0,1-.63,1.78,2.81,2.81,0,0,1-1.25,1,3.4,3.4,0,0,1-3.17-.37,2.82,2.82,0,0,1-1-1.27,3.65,3.65,0,0,1-.2-1.87A3.77,3.77,0,0,1,57,13a2.9,2.9,0,0,1,1.25-1,3.29,3.29,0,0,1,1.63-.2,3.2,3.2,0,0,1,1.54.58,2.8,2.8,0,0,1,1,1.27A3.75,3.75,0,0,1,62.56,15.51Zm-1.62-.19a2.63,2.63,0,0,0,0-1.1,1.32,1.32,0,0,0-.44-.72,1.39,1.39,0,0,0-.78-.33,1.42,1.42,0,0,0-.83.14,1.44,1.44,0,0,0-.6.6,3,3,0,0,0-.3,1.06,2.8,2.8,0,0,0,.05,1.1A1.48,1.48,0,0,0,60,17a1.39,1.39,0,0,0,.6-.6A2.77,2.77,0,0,0,60.94,15.32Z"/><path class="cls-3" d="M64,12.45l1.7.51.55,3,.06,0,2.11-2.25,1.71.51-3.55,3.51-.63,2.11-1.51-.45L65,17.33Z"/><path class="cls-3" d="M72,22.38l3.45-5.59,3.9,2.4-.68,1.1L76.1,18.72l-.71,1.14,2.35,1.45-.68,1.1L74.71,21,74,22.12l2.54,1.57-.67,1.1Z"/><path class="cls-3" d="M85,23.87l-4.29,5-1-.88.5-4.58,0,0-2.48,2.88-1.2-1,4.29-5,1,.89-.51,4.56,0,0,2.47-2.87Z"/><path class="cls-3" d="M88,27.19l1,1.19-3.46,2.95a2.12,2.12,0,0,1-1,.49,2,2,0,0,1-1.11-.16,2.69,2.69,0,0,1-1-.76,2.77,2.77,0,0,1-.57-1,1.84,1.84,0,0,1,0-1,2.14,2.14,0,0,1,.69-1l1,1.21a1,1,0,0,0-.26.35.57.57,0,0,0-.05.36.74.74,0,0,0,.18.35.61.61,0,0,0,.7.22,1.19,1.19,0,0,0,.42-.25Z"/><path class="cls-3" d="M90.5,36.8a3.8,3.8,0,0,1-1.79.6A2.88,2.88,0,0,1,87.14,37a3.44,3.44,0,0,1-1.65-2.72,2.91,2.91,0,0,1,.4-1.56,3.81,3.81,0,0,1,1.36-1.31A3.75,3.75,0,0,1,89,30.84a2.86,2.86,0,0,1,1.56.36,3.48,3.48,0,0,1,1.65,2.73,2.84,2.84,0,0,1-.4,1.56A3.62,3.62,0,0,1,90.5,36.8Zm-.84-1.39a2.85,2.85,0,0,0,.83-.72,1.36,1.36,0,0,0,.08-1.6,1.49,1.49,0,0,0-.62-.58,1.47,1.47,0,0,0-.84-.1,2.83,2.83,0,0,0-1,.41,2.78,2.78,0,0,0-.84.72,1.39,1.39,0,0,0-.3.79,1.46,1.46,0,0,0,.22.81,1.43,1.43,0,0,0,.62.58,1.39,1.39,0,0,0,.84.1A3,3,0,0,0,89.66,35.41Z"/><path class="cls-3" d="M93.78,36l.65,1.65L92.37,40l0,.06,3.07.29L96.11,42l-5-.64-2,.8-.58-1.47,2-.8Z"/><path class="cls-3" d="M90.86,48.44l6.54-.72.5,4.56-1.29.14-.32-3L95,49.59l.3,2.74L94,52.47l-.3-2.74-1.34.15.32,3L91.36,53Z"/><path class="cls-3" d="M97.72,59.65l-6.57-.32L91.22,58l3.91-2.43v-.05l-3.78-.18.07-1.59,6.57.32-.07,1.37L94,57.83v.05l3.78.19Z"/><path class="cls-3" d="M96.91,64l-.32,1.53-4.45-.91a2.07,2.07,0,0,1-1-.53,2,2,0,0,1-.56-1,2.81,2.81,0,0,1,0-1.26A2.75,2.75,0,0,1,91,60.83a1.84,1.84,0,0,1,.81-.65,2.08,2.08,0,0,1,1.2,0l-.32,1.55a.92.92,0,0,0-.44,0,.6.6,0,0,0-.32.18.83.83,0,0,0-.14.75.56.56,0,0,0,.24.29,1.17,1.17,0,0,0,.45.18Z"/><path class="cls-3" d="M90.87,71.92a3.7,3.7,0,0,1-1.57-1,2.81,2.81,0,0,1-.66-1.47,3.41,3.41,0,0,1,1.14-3,2.84,2.84,0,0,1,1.47-.64,3.8,3.8,0,0,1,1.86.26,3.74,3.74,0,0,1,1.57,1,2.83,2.83,0,0,1,.67,1.46,3.19,3.19,0,0,1-.2,1.63,3.29,3.29,0,0,1-.94,1.35,2.81,2.81,0,0,1-1.47.64A3.76,3.76,0,0,1,90.87,71.92Zm.58-1.51a3.1,3.1,0,0,0,1.08.22,1.42,1.42,0,0,0,.81-.25,1.53,1.53,0,0,0,.58-1.52,1.35,1.35,0,0,0-.44-.72,2.68,2.68,0,0,0-1-.56,2.8,2.8,0,0,0-1.07-.22,1.47,1.47,0,0,0-.82.25,1.39,1.39,0,0,0-.5.67,1.49,1.49,0,0,0-.08.85,1.46,1.46,0,0,0,.44.72A2.88,2.88,0,0,0,91.45,70.41Z"/><path class="cls-3" d="M93.49,74.05l-.91,1.52-3.08-.21,0,0L91.13,78l-.91,1.53-2.53-4.31L85.8,74.11l.81-1.36,1.88,1.13Z"/><path class="cls-3" d="M81.9,79.36l4.59,4.71-3.28,3.2-.9-.93,2.14-2.08-.94-1-2,1.92-.9-.92,2-1.93-.94-1-2.15,2.09-.9-.92Z"/><path class="cls-3" d="M77.29,91.66,73.5,86.29l1.1-.78,4.33,1.59,0,0L76.78,84l1.29-.92,3.79,5.38-1.12.79-4.29-1.61,0,0,2.18,3.1Z"/><path class="cls-3" d="M73.35,93.7l-1.41.69-2-4.07a2,2,0,0,1-.22-1.13,2.06,2.06,0,0,1,.42-1,2.78,2.78,0,0,1,1-.78,2.88,2.88,0,0,1,1.1-.3,1.78,1.78,0,0,1,1,.24,2.16,2.16,0,0,1,.78.91l-1.42.7a1.21,1.21,0,0,0-.28-.34.65.65,0,0,0-.34-.13.7.7,0,0,0-.38.09.75.75,0,0,0-.3.25.65.65,0,0,0-.08.37,1.2,1.2,0,0,0,.13.47Z"/><path class="cls-3" d="M63.39,93.8a3.74,3.74,0,0,1-.13-1.88A2.71,2.71,0,0,1,64,90.5a3.25,3.25,0,0,1,1.41-.84,3.07,3.07,0,0,1,1.64-.09,2.82,2.82,0,0,1,1.41.77A3.74,3.74,0,0,1,69.39,92a3.64,3.64,0,0,1,.14,1.88,2.78,2.78,0,0,1-.74,1.42,3.48,3.48,0,0,1-3.05.94,2.89,2.89,0,0,1-1.41-.77A3.8,3.8,0,0,1,63.39,93.8ZM65,93.33a2.65,2.65,0,0,0,.49,1,1.41,1.41,0,0,0,.69.49,1.42,1.42,0,0,0,.84,0,1.37,1.37,0,0,0,.71-.45,1.4,1.4,0,0,0,.31-.8,2.79,2.79,0,0,0-.15-1.09,2.65,2.65,0,0,0-.49-1,1.41,1.41,0,0,0-.69-.49,1.42,1.42,0,0,0-.84,0,1.44,1.44,0,0,0-.72.45,1.46,1.46,0,0,0-.3.8A2.79,2.79,0,0,0,65,93.33Z"/><path class="cls-3" d="M63.33,97.17l-1.76.22-1.72-2.56h-.06l-1,2.9L57,98l1.84-4.64-.28-2.18,1.57-.2.27,2.18Z"/><path class="cls-3" d="M53.89,91.39l-.55,6.55-4.57-.39.11-1.28,3,.25L52,95.18l-2.75-.24.11-1.28,2.75.23.11-1.35-3-.25.1-1.29Z"/><path class="cls-3" d="M41.54,95.94l1.59-6.38,1.31.33,1.62,4.31h0L47,90.53l1.54.39L47,97.29,45.64,97l-1.59-4.3h0l-.92,3.67Z"/><path class="cls-3" d="M37.43,94.29,36,93.68l1.77-4.18a2.07,2.07,0,0,1,.72-.91,1.92,1.92,0,0,1,1.05-.36,2.75,2.75,0,0,1,1.23.24,2.82,2.82,0,0,1,1,.63,1.81,1.81,0,0,1,.48.93A2.14,2.14,0,0,1,42,91.21l-1.46-.62a1.2,1.2,0,0,0,.08-.43.6.6,0,0,0-.13-.35.76.76,0,0,0-.31-.23.78.78,0,0,0-.39,0,.53.53,0,0,0-.33.17,1.33,1.33,0,0,0-.27.41Z"/><path class="cls-3" d="M30.85,86.82a3.67,3.67,0,0,1,1.33-1.33,2.87,2.87,0,0,1,1.57-.37,3.18,3.18,0,0,1,1.56.52,3.27,3.27,0,0,1,1.13,1.18,2.81,2.81,0,0,1,.34,1.57,4.19,4.19,0,0,1-2,3.11,2.81,2.81,0,0,1-1.56.37,3.29,3.29,0,0,1-1.56-.52,3.38,3.38,0,0,1-1.14-1.18,2.88,2.88,0,0,1-.34-1.57A3.66,3.66,0,0,1,30.85,86.82Zm1.37.87a2.72,2.72,0,0,0-.42,1,1.38,1.38,0,0,0,.08.84,1.43,1.43,0,0,0,.57.63,1.36,1.36,0,0,0,.8.24,1.4,1.4,0,0,0,.8-.29,2.86,2.86,0,0,0,.74-.82,2.9,2.9,0,0,0,.42-1,1.41,1.41,0,0,0-.08-.85,1.35,1.35,0,0,0-.57-.62,1.34,1.34,0,0,0-1.61,0A2.89,2.89,0,0,0,32.22,87.69Z"/><path class="cls-3" d="M28.26,89l-1.32-1.19.81-3,0,0-2.87,1.11-1.32-1.18,4.71-1.65,1.47-1.63,1.17,1L29.4,84.11Z"/><path class="cls-3" d="M26.44,78.05,21.12,81.9l-2.69-3.71,1.05-.76,1.75,2.43,1.09-.79-1.61-2.24,1-.76,1.62,2.24,1.1-.79-1.76-2.43,1-.76Z"/><path class="cls-3" d="M14.94,71.7l5.87-3,.61,1.2-2.21,4,0,0,3.39-1.72.71,1.42-5.86,3-.62-1.22,2.21-4,0,0-3.38,1.71Z"/><path class="cls-3" d="M13.49,67.49,13,66l4.33-1.4a2.16,2.16,0,0,1,1.15,0,2,2,0,0,1,1,.57,2.59,2.59,0,0,1,.63,1.09,2.79,2.79,0,0,1,.14,1.13,1.7,1.7,0,0,1-.39,1,2.08,2.08,0,0,1-1,.64l-.49-1.51a1.06,1.06,0,0,0,.38-.22.58.58,0,0,0,.18-.32.67.67,0,0,0,0-.39.63.63,0,0,0-.21-.33A.58.58,0,0,0,18.3,66a1.24,1.24,0,0,0-.48.07Z"/><path class="cls-3" d="M14.85,57.65a3.73,3.73,0,0,1,1.88.13,2.85,2.85,0,0,1,1.3.95,3.24,3.24,0,0,1,.63,1.52,3.18,3.18,0,0,1-.15,1.63,2.91,2.91,0,0,1-1,1.29,3.85,3.85,0,0,1-1.75.68,3.72,3.72,0,0,1-1.88-.14,2.76,2.76,0,0,1-1.3-.94,3.42,3.42,0,0,1-.48-3.15,2.89,2.89,0,0,1,1-1.29A3.72,3.72,0,0,1,14.85,57.65Zm.24,1.6a3,3,0,0,0-1,.34,1.48,1.48,0,0,0-.34,2.23,1.38,1.38,0,0,0,.74.41,2.85,2.85,0,0,0,1.1,0,3,3,0,0,0,1-.34,1.35,1.35,0,0,0,.69-1.46,1.41,1.41,0,0,0-.35-.77,1.45,1.45,0,0,0-.74-.41A2.85,2.85,0,0,0,15.09,59.25Z"/><path class="cls-3" d="M11.53,57.1l0-1.77L14.34,54v-.06l-2.72-1.44,0-1.77L16,53.2l2.2,0,0,1.58-2.2,0Z"/><path class="cls-3" d="M19,46.77l-6.31-1.83,1.27-4.4,1.24.36-.83,2.87,1.29.38.77-2.65,1.24.35-.76,2.66,1.3.37L19,42l1.24.36Z"/><path class="cls-3" d="M16.91,33.77l5.94,2.81-.57,1.22-4.55.74,0,0,3.43,1.62-.68,1.43-5.94-2.81.58-1.23,4.53-.72,0,0L16.23,35.2Z"/><path class="cls-3" d="M19.34,30l.88-1.29L24,31.3a2.09,2.09,0,0,1,.75.88,2,2,0,0,1,.14,1.11,2.66,2.66,0,0,1-.47,1.16,2.77,2.77,0,0,1-.8.8,1.75,1.75,0,0,1-1,.29,2.06,2.06,0,0,1-1.12-.41l.89-1.31a.92.92,0,0,0,.41.16.55.55,0,0,0,.36,0,.71.71,0,0,0,.29-.26.69.69,0,0,0,.13-.37.62.62,0,0,0-.1-.36,1.27,1.27,0,0,0-.35-.34Z"/><path class="cls-3" d="M28,25a3.75,3.75,0,0,1,1,1.57,2.77,2.77,0,0,1,.06,1.61,3.29,3.29,0,0,1-.81,1.42,3.22,3.22,0,0,1-1.39.89,2.89,2.89,0,0,1-1.6,0,3.83,3.83,0,0,1-1.62-1A3.78,3.78,0,0,1,22.59,28a3,3,0,0,1-.06-1.61A3.26,3.26,0,0,1,23.35,25a3.13,3.13,0,0,1,1.38-.89,2.89,2.89,0,0,1,1.6,0A3.71,3.71,0,0,1,28,25Zm-1.12,1.18a2.9,2.9,0,0,0-.91-.61,1.32,1.32,0,0,0-1.57.35,1.39,1.39,0,0,0-.4.74,1.49,1.49,0,0,0,.13.84,2.81,2.81,0,0,0,.66.88,2.93,2.93,0,0,0,.92.61,1.38,1.38,0,0,0,.84.09,1.44,1.44,0,0,0,.73-.44,1.37,1.37,0,0,0,.39-.74,1.41,1.41,0,0,0-.13-.84A2.93,2.93,0,0,0,26.84,26.22Z"/><path class="cls-3" d="M26.31,22.12l1.42-1.07,2.76,1.37.05,0-.54-3,1.42-1.07.7,4.95L33.44,25l-1.26.95-1.32-1.75Z"/><path class="cls-4" d="M45.27,27.5l4.66-1.2.34,1.31-3.05.78.35,1.38L50.38,29l.34,1.32-2.81.72.36,1.38,3-.79L51.65,33,47,34.19Z"/><path class="cls-4" d="M58.18,33l-1.42,0L54.1,28.9h0l-.09,4-1.67,0,.15-6.91,1.44,0,2.63,4h.06l.09-4,1.66,0Z"/><path class="cls-4" d="M65,27.79l-1.34,4.58a2.25,2.25,0,0,1-3,1.44A2.06,2.06,0,0,1,59,31.1l1.6.46a.74.74,0,0,0,.49,1c.46.14.8-.09,1-.66l1.34-4.58Z"/><path class="cls-4" d="M66.37,36.36a3.22,3.22,0,0,1-.9-4.76,3.31,3.31,0,1,1,5.58,3.52A3.22,3.22,0,0,1,66.37,36.36Zm3-4.76c-.84-.53-1.73-.23-2.46.91s-.6,2.08.24,2.61,1.74.23,2.46-.91S70.22,32.13,69.37,31.6Z"/><path class="cls-4" d="M75.47,34.78l-1.22,3,0,0L77.43,37l1.22,1.41-5.13,1.11-1.74,1.51-1.09-1.25,1.74-1.52,1.82-4.92Z"/><path class="cls-4" d="M81.85,44.89l1.26,4.64-1.3.36-.83-3-1.37.38L80.38,50l-1.31.36-.77-2.8L76.94,48l.82,3-1.3.35L75.19,46.7Z"/><path class="cls-4" d="M76.52,57.82l0-1.41,4-2.68v0l-4-.07,0-1.67,6.91.12,0,1.44-4,2.64v.06l4,.07,0,1.67Z"/><path class="cls-4" d="M81.84,64.61l-4.6-1.27a2.24,2.24,0,0,1-1.48-3,2.05,2.05,0,0,1,2.68-1.67L78,60.28a.74.74,0,0,0-1,.51c-.13.46.1.8.68,1L82.28,63Z"/><path class="cls-4" d="M73.28,66.09a3.55,3.55,0,1,1,1.28,4.67A3.23,3.23,0,0,1,73.28,66.09Zm4.79,3c.52-.85.21-1.74-.94-2.45S75,66,74.52,66.86s-.21,1.74.94,2.45S77.54,69.9,78.07,69.05Z"/><path class="cls-4" d="M75,75.17,72,74l0,0,.84,3.13-1.4,1.24-1.17-5.12-1.53-1.72,1.23-1.1,1.54,1.72,4.94,1.75Z"/><path class="cls-4" d="M65,81.69,60.39,83,60,81.72l3-.87-.39-1.36-2.78.8L59.48,79l2.78-.8-.39-1.36-3,.86-.37-1.3,4.62-1.33Z"/><path class="cls-4" d="M52,76.64l1.42,0,2.82,3.94h0l-.07-4,1.67,0L58,83.44l-1.44,0-2.78-3.93H53.7l.07,4-1.67,0Z"/><path class="cls-4" d="M45.28,82l1.21-4.63a2.24,2.24,0,0,1,3-1.52,2.06,2.06,0,0,1,1.71,2.66l-1.61-.42a.73.73,0,0,0-.52-1c-.47-.12-.8.11-1,.69L46.87,82.4Z"/><path class="cls-4" d="M43.67,73.45A3.56,3.56,0,0,1,40,79.55a3.56,3.56,0,0,1,3.63-6.1Zm-2.88,4.84c.86.51,1.74.19,2.43-1s.56-2.09-.3-2.6-1.74-.19-2.43,1S39.93,77.78,40.79,78.29Z"/><path class="cls-4" d="M34.64,75.33l1.13-3,0,0-3.11.89-1.27-1.36,5.09-1.27,1.69-1.57,1.12,1.22-1.69,1.56-1.66,5Z"/><path class="cls-4" d="M27.91,65.38l-1.39-4.62,1.3-.39.91,3L30.09,63l-.84-2.78,1.3-.39.84,2.78,1.37-.41-.92-3,1.31-.39,1.39,4.62Z"/><path class="cls-4" d="M32.85,52.3l0,1.41L29,56.55v.05l4-.09,0,1.66-6.91.16,0-1.44L30,54.09V54l-4,.09,0-1.67Z"/><path class="cls-4" d="M27.36,45.66,32,46.8a2.25,2.25,0,0,1,1.57,3,2.07,2.07,0,0,1-2.65,1.75l.4-1.62a.74.74,0,0,0,1-.53c.11-.47-.13-.8-.71-1L27,47.26Z"/><path class="cls-4" d="M35.87,44A3.22,3.22,0,0,1,31.15,45a3.31,3.31,0,1,1,3.28-5.72A3.23,3.23,0,0,1,35.87,44ZM31,41.14c-.5.87-.16,1.75,1,2.42s2.11.52,2.61-.34.15-1.75-1-2.42S31.47,40.28,31,41.14Z"/><path class="cls-4" d="M33.87,35,36.92,36l0,0L36,32.9l1.35-1.29,1.33,5.07,1.59,1.67-1.2,1.14-1.59-1.67-5-1.59Z"/><path class="cls-1" d="M52.47,40.1l2-.17,0,.57-1.32.11.05.6,1.22-.11,0,.58-1.22.1.05.6,1.32-.12,0,.57-2,.18Z"/><path class="cls-1" d="M57.51,43.14l-.59-.08L56,41.26h0l-.21,1.66-.7-.09L55.44,40,56,40,57,41.83h0l.22-1.65.69.09Z"/><path class="cls-1" d="M60.54,41.12,59.87,43a1,1,0,0,1-1.3.54A.87.87,0,0,1,58,42.37l.66.24a.3.3,0,0,0,.18.43c.19.07.34,0,.43-.25l.67-1.9Z"/><path class="cls-1" d="M61,44.7a1.5,1.5,0,1,1,2-.54A1.36,1.36,0,0,1,61,44.7Zm1.25-2c-.35-.22-.73-.09-1,.39s-.25.88.11,1.1.73.09,1-.39S62.6,42.91,62.24,42.69Z"/><path class="cls-1" d="M64.78,43.87l-.43,1.3,0,0,1.3-.43.55.56-2.12.62-.69.69-.5-.5.69-.69.62-2.12Z"/><path class="cls-1" d="M68.2,48.56l.72,1.9-.54.2-.47-1.24-.55.22.43,1.14-.54.2-.43-1.14-.56.21.47,1.24-.53.2-.72-1.89Z"/><path class="cls-1" d="M66.64,54.23l-.08-.59,1.5-1.38h0l-1.65.23-.1-.7,2.87-.4.09.6-1.5,1.36v0l1.66-.24.1.7Z"/><path class="cls-1" d="M69.42,56.61l-2-.13a1,1,0,0,1-.87-1.11.88.88,0,0,1,1-.92l-.05.7a.33.33,0,0,0-.37.3c0,.2.12.32.37.34l2,.13Z"/><path class="cls-1" d="M66.1,58a1.49,1.49,0,1,1,1,1.75A1.35,1.35,0,0,1,66.1,58Zm2.27.67c.11-.4-.11-.73-.65-.89s-.91,0-1,.4.11.72.65.88S68.25,59.07,68.37,58.67Z"/><path class="cls-1" d="M67.92,61.44l-1.36-.07,0,0,.76,1.13-.39.69-1.16-1.89-.84-.48.34-.6.85.48,2.21,0Z"/><path class="cls-1" d="M64.37,66l-1.63,1.22-.34-.46,1.06-.8-.36-.48-1,.73-.34-.46,1-.73-.36-.48-1.07.79L61,64.88l1.63-1.22Z"/><path class="cls-1" d="M58.49,66.05l.54-.24,1.75,1.06h0l-.68-1.53.64-.29,1.19,2.66-.55.25-1.73-1.07h0l.69,1.53-.64.29Z"/><path class="cls-1" d="M57,69.38l-.43-2a1,1,0,0,1,.83-1.14.87.87,0,0,1,1.15.67l-.69.15a.31.31,0,0,0-.38-.27c-.2,0-.28.2-.23.44l.43,2Z"/><path class="cls-1" d="M54.71,66.55a1.36,1.36,0,0,1,1.35,1.53A1.39,1.39,0,1,1,53.29,68,1.37,1.37,0,0,1,54.71,66.55Zm-.05,2.37c.41,0,.67-.29.68-.86s-.23-.88-.65-.89S54,67.46,54,68,54.24,68.92,54.66,68.92Z"/><path class="cls-1" d="M51.91,69.27l-.31-1.34h0l-.89,1-.76-.19,1.49-1.64.23-1,.69.17-.23,1,.58,2.14Z"/><path class="cls-1" d="M47.39,67.58l-1.68-1.13L46,66l1.1.74.33-.49-1-.69.32-.47,1,.68.33-.49L47,64.52l.32-.47L49,65.18Z"/><path class="cls-1" d="M45.34,62.09l.41.42-.4,2h0l1.21-1.17.49.51L45,65.9l-.42-.44.4-2v0l-1.21,1.17-.49-.5Z"/><path class="cls-1" d="M41.71,61.81l1.71-1.08a1,1,0,0,1,1.36.38.88.88,0,0,1-.24,1.32l-.38-.6a.31.31,0,0,0,.13-.45c-.11-.17-.28-.2-.5-.06l-1.7,1.08Z"/><path class="cls-1" d="M43.61,58.7a1.5,1.5,0,1,1-1.88-.82A1.36,1.36,0,0,1,43.61,58.7Zm-2.25.79c.14.4.52.53,1.06.34s.74-.53.6-.92-.51-.54-1.05-.35S41.22,59.09,41.36,59.49Z"/><path class="cls-1" d="M40.12,57l1.15-.75v0L40,55.74,39.9,55l2.05.85,1-.1.08.7-1,.1L40.2,57.78Z"/><path class="cls-1" d="M40.17,52.18l.48-2,.55.14-.31,1.28.58.14.29-1.18.55.13L42,51.91l.58.15.31-1.29.55.14-.48,2Z"/><path class="cls-1" d="M44.64,48.41l-.26.53-2,.29v0l1.5.74-.31.62L41,49.33l.26-.54,2-.28v0l-1.49-.74.31-.62Z"/><path class="cls-1" d="M43.74,44.84l1.58,1.26a1,1,0,0,1,.08,1.4.87.87,0,0,1-1.32.21l.44-.55a.31.31,0,0,0,.47,0c.13-.16.09-.33-.11-.49l-1.57-1.25Z"/><path class="cls-1" d="M47.26,45.59a1.5,1.5,0,1,1,.13-2A1.36,1.36,0,0,1,47.26,45.59Zm-1.5-1.84c-.33.27-.32.66,0,1.11s.75.52,1.07.25.32-.66,0-1.1S46.08,43.49,45.76,43.75Z"/><path class="cls-1" d="M47.69,41.73l1.09.83h0l0-1.37.7-.35-.1,2.22.43.88-.63.3-.43-.87L47,42.08Z"/></g></g></svg>