<svg xmlns="http://www.w3.org/2000/svg" viewBox="0 0 98.18 98.24"><defs><style>.cls-1{fill:#ddafca;}.cls-2{fill:#ae7838;}.cls-3{fill:#f7e683;}</style></defs><g id="Layer_2" data-name="Layer 2"><g id="Layer_1-2" data-name="Layer 1"><path class="cls-1" d="M98.18,53.21l-.09,1A49.18,49.18,0,1,1,44.62.1L45.87,0l1.07,1.09L65.09,19.55l.37.38,3.38,3.44,2.22,2.26,26.3,26.74Z"/><path class="cls-2" d="M28.79,43.84,29,41.09,18.55,42,17.33,57.75l10.49-.92L28,54.09l-7.21.63L21.11,51l6.64-.58L28,47.64l-6.64.58.28-3.75Z"/><path class="cls-2" d="M41.36,45.82a3,3,0,0,0-1.29-1.41A3.67,3.67,0,0,0,38,44.06a4.57,4.57,0,0,0-2.26.79,4.07,4.07,0,0,0-1.41,1.75l-.14,0,.15-2.09-3.07.27-.92,11.81,3.22-.28.54-6.83a3.09,3.09,0,0,1,.38-1.33,2.48,2.48,0,0,1,2-1.27,1.67,1.67,0,0,1,1.48.47A2.16,2.16,0,0,1,38.4,49L37.85,56l3.23-.28.6-7.52A4.82,4.82,0,0,0,41.36,45.82Z"/><path class="cls-2" d="M44.53,43.64l-1,12.3a1.69,1.69,0,0,1-.4,1,1.63,1.63,0,0,1-1.11.43l-.21,0h-.22L41.44,60h.33a1.24,1.24,0,0,0,.27,0,6.53,6.53,0,0,0,2.42-.56A4,4,0,0,0,46.09,58a4.65,4.65,0,0,0,.7-2.28l1-12.35Zm3.09-4.59a1.57,1.57,0,0,0-1.22-.37,1.93,1.93,0,0,0-1.24.59,1.72,1.72,0,0,0-.55,1.21,1.34,1.34,0,0,0,.48,1.12,1.62,1.62,0,0,0,1.23.38,2,2,0,0,0,1.24-.6,1.75,1.75,0,0,0,.54-1.21A1.38,1.38,0,0,0,47.62,39.05Z"/><path class="cls-2" d="M60.39,45a4.1,4.1,0,0,0-1.83-2,5.22,5.22,0,0,0-3-.5,6.59,6.59,0,0,0-3.1,1,6.31,6.31,0,0,0-2.12,2.29,7.7,7.7,0,0,0-.93,3.24,6.38,6.38,0,0,0,.46,3.14,4,4,0,0,0,1.82,2,5.35,5.35,0,0,0,3,.51,6.7,6.7,0,0,0,3.09-1,6.5,6.5,0,0,0,2.13-2.29,7.59,7.59,0,0,0,.92-3.23A6.33,6.33,0,0,0,60.39,45Zm-2.81,3.33a6.09,6.09,0,0,1-.42,1.88,3.83,3.83,0,0,1-.94,1.37,2.48,2.48,0,0,1-1.42.59,1.71,1.71,0,0,1-1.29-.34,2.18,2.18,0,0,1-.7-1.18,5.4,5.4,0,0,1-.14-1.8A6.1,6.1,0,0,1,53.1,47,3.6,3.6,0,0,1,54,45.61,2.3,2.3,0,0,1,55.45,45a1.71,1.71,0,0,1,1.29.34,2.27,2.27,0,0,1,.7,1.19A5.32,5.32,0,0,1,57.58,48.34Z"/><path class="cls-2" d="M70.34,41.39l-1.87,5.35-1.24,3.54h-.12l-1-5.11-.69-3.36-3.27.29v0l3.21,11.7-.24.52a1.83,1.83,0,0,1-1,1,2.73,2.73,0,0,1-1.42,0l-.92,2.52a4.32,4.32,0,0,0,.87.15,5.42,5.42,0,0,0,1.14,0,5.63,5.63,0,0,0,2.07-.56,4.75,4.75,0,0,0,1.49-1.21,7,7,0,0,0,1-1.75L71,48.14l2.9-7.06Z"/><path class="cls-2" d="M78.19,49.52a1.66,1.66,0,0,0-1.27-.42,2,2,0,0,0-1.29.64,1.76,1.76,0,0,0-.29.4,1.7,1.7,0,0,0-.23.92A1.68,1.68,0,0,0,77,52.73a1.83,1.83,0,0,0,.88-.33,2.08,2.08,0,0,0,.66-.72,2.17,2.17,0,0,0,.15-.35,1.66,1.66,0,0,0,.1-.59A1.62,1.62,0,0,0,78.19,49.52ZM76.31,37l-.54,11,2.76-.24,1.14-11.05Z"/><path class="cls-2" d="M28.79,66.29,29,63.54l-10.46.92L17.33,80.2l10.49-.92L28,76.53l-7.21.63.28-3.75,6.64-.58L28,70.08l-6.64.58.28-3.75Z"/><path class="cls-2" d="M41.36,68.27a2.87,2.87,0,0,0-1.29-1.41A3.67,3.67,0,0,0,38,66.51a4.57,4.57,0,0,0-2.26.79,4,4,0,0,0-1.41,1.75H34.2L34.35,67l-3.07.27-.92,11.81,3.22-.29L34.12,72a3.09,3.09,0,0,1,.38-1.33,2.48,2.48,0,0,1,.84-.89,2.62,2.62,0,0,1,1.17-.39,1.7,1.7,0,0,1,1.48.48,2.15,2.15,0,0,1,.41,1.65l-.55,6.93,3.23-.28.6-7.52A4.82,4.82,0,0,0,41.36,68.27Z"/><path class="cls-2" d="M44.53,66.09l-1,12.3a1.42,1.42,0,0,1-1.51,1.46l-.21,0h-.22l-.2,2.56h.33a1.24,1.24,0,0,0,.27,0,6.53,6.53,0,0,0,2.42-.56,4,4,0,0,0,1.63-1.39,4.65,4.65,0,0,0,.7-2.28l1-12.35Zm3.09-4.59a1.54,1.54,0,0,0-1.22-.37,1.93,1.93,0,0,0-1.24.59,1.72,1.72,0,0,0-.55,1.21,1.34,1.34,0,0,0,.48,1.12,1.57,1.57,0,0,0,1.23.37,1.93,1.93,0,0,0,1.24-.59,1.75,1.75,0,0,0,.54-1.21A1.38,1.38,0,0,0,47.62,61.5Z"/><path class="cls-2" d="M60.39,67.46a4.1,4.1,0,0,0-1.83-2,5.3,5.3,0,0,0-3-.51,6.71,6.71,0,0,0-3.1,1,6.31,6.31,0,0,0-2.12,2.29,7.66,7.66,0,0,0-.93,3.24,6.38,6.38,0,0,0,.46,3.14,4,4,0,0,0,1.82,2,5.35,5.35,0,0,0,3,.51,6.71,6.71,0,0,0,3.09-1,6.42,6.42,0,0,0,2.13-2.29,7.5,7.5,0,0,0,.92-3.22A6.32,6.32,0,0,0,60.39,67.46Zm-2.81,3.33a6.09,6.09,0,0,1-.42,1.88A3.71,3.71,0,0,1,56.22,74a2.43,2.43,0,0,1-1.42.6,1.75,1.75,0,0,1-1.29-.34,2.21,2.21,0,0,1-.7-1.19,5.32,5.32,0,0,1-.14-1.79,6.1,6.1,0,0,1,.43-1.88A3.6,3.6,0,0,1,54,68.06a2.37,2.37,0,0,1,1.41-.6,1.71,1.71,0,0,1,1.29.35,2.27,2.27,0,0,1,.7,1.19A5.32,5.32,0,0,1,57.58,70.79Z"/><path class="cls-2" d="M70.34,63.83l-3.11,8.9h-.12l-1.73-8.47-3.27.28,3.22,11.76-.24.52a1.77,1.77,0,0,1-1,1,2.61,2.61,0,0,1-1.42,0l-.92,2.51a3.66,3.66,0,0,0,.87.16,7.22,7.22,0,0,0,1.14,0,5.44,5.44,0,0,0,2.07-.57,4.49,4.49,0,0,0,1.49-1.21,6.76,6.76,0,0,0,1-1.74l5.52-13.47Z"/><path class="cls-2" d="M78.19,72a1.66,1.66,0,0,0-1.27-.42,1.91,1.91,0,0,0-1.29.64,1.8,1.8,0,0,0-.52,1.32A1.68,1.68,0,0,0,77,75.18a1.83,1.83,0,0,0,.88-.33,2.28,2.28,0,0,0,.66-.72,1.94,1.94,0,0,0,.25-.94A1.62,1.62,0,0,0,78.19,72ZM76.31,59.4l-.54,11,2.76-.25,1.14-11Z"/><path class="cls-2" d="M28.79,21.54,29,18.8l-10.46.91L17.33,35.45l10.49-.91L28,31.79l-7.21.63.28-3.76,6.64-.58L28,25.34l-6.64.58.28-3.75Z"/><path class="cls-2" d="M41.36,23.52a2.89,2.89,0,0,0-1.29-1.4A3.59,3.59,0,0,0,38,21.77a4.47,4.47,0,0,0-2.26.79,4,4,0,0,0-1.41,1.75H34.2l.15-2.08-3.07.27-.92,11.8L33.58,34l.54-6.82a3.09,3.09,0,0,1,.38-1.33,2.43,2.43,0,0,1,.84-.9,2.74,2.74,0,0,1,1.17-.38,1.65,1.65,0,0,1,1.48.48,2.13,2.13,0,0,1,.41,1.65l-.55,6.93,3.23-.28.6-7.52A4.86,4.86,0,0,0,41.36,23.52Z"/><path class="cls-2" d="M44.53,21.35l-1,12.29a1.44,1.44,0,0,1-1.51,1.47h-.43l-.2,2.56h.33l.27,0a6.73,6.73,0,0,0,2.42-.57,3.88,3.88,0,0,0,1.63-1.39,4.58,4.58,0,0,0,.7-2.27l1-12.35Zm3.09-4.6a1.5,1.5,0,0,0-1-.38h-.2a2,2,0,0,0-1.24.59,1.75,1.75,0,0,0-.55,1.22,1.31,1.31,0,0,0,.48,1.11,1.58,1.58,0,0,0,1.23.38,1.84,1.84,0,0,0,1-.41l.21-.19a1.71,1.71,0,0,0,.54-1.2A1.4,1.4,0,0,0,47.62,16.75Z"/><path class="cls-2" d="M60.39,22.72a4,4,0,0,0-1.83-2,5.3,5.3,0,0,0-3-.51,6.59,6.59,0,0,0-3.1,1,6.39,6.39,0,0,0-2.12,2.29,7.65,7.65,0,0,0-.74,1.92,9.12,9.12,0,0,0-.19,1.32,6.4,6.4,0,0,0,.46,3.15,4,4,0,0,0,1.82,2,4.79,4.79,0,0,0,1.77.5,6.42,6.42,0,0,0,1.24,0,6.59,6.59,0,0,0,3.09-1,6.42,6.42,0,0,0,2.13-2.29,7.55,7.55,0,0,0,.92-3.23A6.29,6.29,0,0,0,60.39,22.72Zm-2.81,3.33a6.16,6.16,0,0,1-.42,1.88,3.79,3.79,0,0,1-.94,1.36,2.36,2.36,0,0,1-1.42.59,1.67,1.67,0,0,1-1.29-.34,2.14,2.14,0,0,1-.7-1.18,5.32,5.32,0,0,1-.14-1.79,6.1,6.1,0,0,1,.43-1.88A3.6,3.6,0,0,1,54,23.32a2.37,2.37,0,0,1,1.41-.6,1.71,1.71,0,0,1,1.29.35,2.24,2.24,0,0,1,.7,1.18A5.38,5.38,0,0,1,57.58,26.05Z"/><path class="cls-2" d="M65.46,19.93,67.11,28h.12l1.61-4.62,2.22,2.26-2.71,6.62a6.76,6.76,0,0,1-1,1.74,4.62,4.62,0,0,1-1.49,1.21,5.44,5.44,0,0,1-2.07.56,6.24,6.24,0,0,1-1.14,0,5.06,5.06,0,0,1-.87-.16l.92-2.51a2.61,2.61,0,0,0,1.42,0,1.77,1.77,0,0,0,1-1l.24-.51L62.11,19.81l3-.26Z"/><path class="cls-3" d="M97.36,52.37,71.06,25.63l-2.22-2.26-3.38-3.44-.37-.38L46.94,1.09,45.87,0c0,.4-.1.79-.13,1.19a46.84,46.84,0,0,0-.25,4.92A47.5,47.5,0,0,0,46.6,16.37c.22,1,.47,1.95.75,2.9a46.55,46.55,0,0,0,2.25,6.19,48,48,0,0,0,3.86,6.95,47,47,0,0,0,8.66,9.75,44.35,44.35,0,0,0,3.95,3q1.17.82,2.4,1.56c.82.49,1.65,1,2.5,1.4a44.32,44.32,0,0,0,4.37,2c1.08.44,2.19.83,3.31,1.19A47.42,47.42,0,0,0,92.88,53.5c1.48,0,3-.07,4.39-.2l.91-.09Z"/></g></g></svg>