<svg xmlns="http://www.w3.org/2000/svg" viewBox="0 0 151.14 80.33"><defs><style>.cls-1,.cls-3{fill:#e74122;}.cls-2{fill:none;stroke-width:0.75px;}.cls-2,.cls-3{stroke:#e74122;stroke-miterlimit:10;}</style></defs><g id="Layer_2" data-name="Layer 2"><g id="Layer_1-2" data-name="Layer 1"><path class="cls-1" d="M21.89,28.75a3.56,3.56,0,0,0-1.49,1.58,1.77,1.77,0,0,0,.07,1.59A3,3,0,0,0,22,33.09a7.3,7.3,0,0,0,3,.34,3.16,3.16,0,0,0,2-.86A2.6,2.6,0,0,0,27.82,31a3.1,3.1,0,0,0-.47-1.76,3.37,3.37,0,0,0-1.53-1.35l-2.31-.76c-.84-.26-1.67-.55-2.5-.86a21.11,21.11,0,0,1-2.36-1.06,6.33,6.33,0,0,1-1.8-1.39,5.78,5.78,0,0,1-1.76-3.47,8.1,8.1,0,0,1,1.15-4.41A9,9,0,0,1,22.47,11,20.82,20.82,0,0,1,28,10.57a17,17,0,0,1,5.1,1A6,6,0,0,1,36,13.68a7.71,7.71,0,0,1,1.28,3.37,2.44,2.44,0,0,1-.45,1.85,2.61,2.61,0,0,1-1.75,1L33.72,20a9,9,0,0,1-1.12.07,6.18,6.18,0,0,1-1-.09,11.84,11.84,0,0,1-1.17-.27,1.14,1.14,0,0,1-.76-.47,1.55,1.55,0,0,1-.1-.93,3.74,3.74,0,0,0,1.22-.92.62.62,0,0,0,.09-.72,1.45,1.45,0,0,0-.74-.52,5.3,5.3,0,0,0-1.22-.33,13,13,0,0,0-1.41-.14,8.79,8.79,0,0,0-1.26,0,3.62,3.62,0,0,0-1.92.65,2.29,2.29,0,0,0-.88,1.18,1.73,1.73,0,0,0,.18,1.32,2.5,2.5,0,0,0,1.29,1.06,17.58,17.58,0,0,0,1.78.83c.66.26,1.33.51,2,.75l2,.71c.65.22,1.24.45,1.77.66a6,6,0,0,1,3.09,2.59,6.57,6.57,0,0,1,.65,4.07,12.36,12.36,0,0,1-.77,3.13,10.57,10.57,0,0,1-1.61,2.78,9.81,9.81,0,0,1-2.44,2.17A10.22,10.22,0,0,1,28.05,39a18.84,18.84,0,0,1-11.77-.9,7,7,0,0,1-1.84-1.2,5.65,5.65,0,0,1-1.33-1.77,3.78,3.78,0,0,1-.34-2.1,4.28,4.28,0,0,1,1.1-2.27,6.08,6.08,0,0,1,2.05-1.55,10.84,10.84,0,0,1,2.34-.75,8.13,8.13,0,0,1,1.82-.15A4.86,4.86,0,0,1,21.89,28.75Z"/><path class="cls-1" d="M56.49,32.75a4.71,4.71,0,0,1-.61,2.08,5.49,5.49,0,0,1-1.35,1.59,6.23,6.23,0,0,1-1.78,1,4.43,4.43,0,0,1-1.86.27,3.11,3.11,0,0,1-1.6-.6,2.87,2.87,0,0,1-1-1.56,12.35,12.35,0,0,1-3.55,1.53,8.15,8.15,0,0,1-3.37.18,4.86,4.86,0,0,1-2.62-1.32,4.69,4.69,0,0,1-1.3-3,14.33,14.33,0,0,1,.45-4.77,13.35,13.35,0,0,1,2-4.34,12.15,12.15,0,0,1,3.4-3.26A9.83,9.83,0,0,1,47.89,19a4,4,0,0,1,1.81.52,17.4,17.4,0,0,0,1.57.78,3.1,3.1,0,0,1,1.37-1A7.36,7.36,0,0,1,54.19,19a2.43,2.43,0,0,1,2,.63,2.08,2.08,0,0,1,.52,1.89q-.51,2.81-1.24,5.58t-1.14,5.29a3,3,0,0,1,.11.52c0,.18.16.29.4.31a.47.47,0,0,0,.48-.25l.27-.51a1.6,1.6,0,0,1,.29-.75.29.29,0,0,1,.36-.09.6.6,0,0,1,.27.39A1.52,1.52,0,0,1,56.49,32.75Zm-6.59-8.1a4,4,0,0,0-1.06-.26,6.84,6.84,0,0,0-1.28,0,4,4,0,0,0-1.2.33,2.21,2.21,0,0,0-.89.68,6.89,6.89,0,0,0-1.67,2.67,4.27,4.27,0,0,0-.16,2.44,1.29,1.29,0,0,0,.79,1,2.35,2.35,0,0,0,1.37,0,5.34,5.34,0,0,0,1.51-.69,4.61,4.61,0,0,0,1.19-1.06,20,20,0,0,1,.74-2.68A18.25,18.25,0,0,0,49.9,24.65Z"/><path class="cls-1" d="M63.19,30.51a2.72,2.72,0,0,0-.65,1.62,1.5,1.5,0,0,0,.86,1.16,4.94,4.94,0,0,0,1.39.52,5.26,5.26,0,0,0,1.67.12A3.4,3.4,0,0,0,68,33.45a2,2,0,0,0,.9-1.32,1.27,1.27,0,0,0-.57-1.51c-.77-.29-1.51-.54-2.22-.77s-1.37-.46-2-.69-1.23-.46-1.8-.72a9.68,9.68,0,0,1-1.62-.88,3.53,3.53,0,0,1-1.26-2.1A4.8,4.8,0,0,1,59.59,23a6.37,6.37,0,0,1,1.35-2.31A6.81,6.81,0,0,1,63.19,19a9.51,9.51,0,0,1,2.79-.9,15.1,15.1,0,0,1,3.65-.22,13.09,13.09,0,0,1,3.65.74,6.06,6.06,0,0,1,2.79,2,2.47,2.47,0,0,1,.4,2,3.5,3.5,0,0,1-1.19,2,4.44,4.44,0,0,1-1.2.68,5,5,0,0,1-1.34.31,4.63,4.63,0,0,1-1.29-.09,2.32,2.32,0,0,1-1.06-.54,1.62,1.62,0,0,1-.58-1.48,2.15,2.15,0,0,0,0-.84.82.82,0,0,0-.48-.6,1.72,1.72,0,0,0-1.37-.07,2.87,2.87,0,0,0-1.19.76,2,2,0,0,0-.54,1.15,1.15,1.15,0,0,0,.58,1.11A4.27,4.27,0,0,0,68,25.6a11.67,11.67,0,0,0,1.27.4l1.3.32a13.11,13.11,0,0,1,1.26.38,5.6,5.6,0,0,1,2.5,1.56,4.78,4.78,0,0,1,1.14,2.79,4.11,4.11,0,0,1-.18,1.75,8.84,8.84,0,0,1-.8,1.78,7.72,7.72,0,0,1-1.2,1.59,6,6,0,0,1-1.42,1.11,7.89,7.89,0,0,1-2.61,1,18.4,18.4,0,0,1-3.57.4A20.43,20.43,0,0,1,62,38.38a8,8,0,0,1-3-1,2.69,2.69,0,0,1-1.3-1,3.76,3.76,0,0,1-.59-1.55,4,4,0,0,1,.14-1.73,3.64,3.64,0,0,1,1-1.56,3.46,3.46,0,0,1,1.11-.81,5.61,5.61,0,0,1,1.35-.44,4.76,4.76,0,0,1,1.35,0A3.66,3.66,0,0,1,63.19,30.51Z"/><path class="cls-1" d="M86.19,20.72c.48-.14.93-.29,1.35-.43s.83-.26,1.24-.36a9.88,9.88,0,0,1,2.4-.13,5.71,5.71,0,0,1,2,.51,3.77,3.77,0,0,1,1.44,1.13,3.36,3.36,0,0,1,.67,1.73,12.63,12.63,0,0,1,0,3q-.18,1.49-.51,3c-.21,1-.45,2-.7,2.93a28.54,28.54,0,0,0-.59,2.86c-.12.72-.2,1.33-.24,1.84a3,3,0,0,0,.17,1.31,2.45,2.45,0,0,0,.75,1,6.29,6.29,0,0,0,1.59.88.89.89,0,0,1,.52.42.48.48,0,0,1,0,.45,1,1,0,0,1-.41.36,1.51,1.51,0,0,1-.65.14,16.39,16.39,0,0,1-3.65-.43A5.24,5.24,0,0,1,89,39.5a5,5,0,0,1-1.22-2.81,12.82,12.82,0,0,1,.39-4.56c.08-.48.17-1,.29-1.6s.24-1.19.34-1.8A16.58,16.58,0,0,0,89,27a5.11,5.11,0,0,0-.09-1.5,1.2,1.2,0,0,0-.86-.81,2.14,2.14,0,0,0-1.37.06l-.42.16L85.9,25a1,1,0,0,0-.61.79c-.19.94-.38,1.88-.58,2.83s-.37,1.88-.54,2.79a3.34,3.34,0,0,0-.07.92,3,3,0,0,0,.22.84,3.75,3.75,0,0,1,.36,1.21,2.44,2.44,0,0,1-.22,1.28A2.08,2.08,0,0,1,83.29,37a5.44,5.44,0,0,1-2,.49A12.45,12.45,0,0,1,79,37.43a15.55,15.55,0,0,1-2-.36S77,37,77,37a.19.19,0,0,1-.13-.07,1.69,1.69,0,0,1-.88-1.2A2.84,2.84,0,0,1,76.4,34a3.69,3.69,0,0,1,.34-.5l.41-.51a5.22,5.22,0,0,0,.51-.75,2.83,2.83,0,0,0,.29-.83q.47-2.91,1-5.69t1-5.58q.07-.36.15-.9a9.83,9.83,0,0,0,.09-1.08,5.6,5.6,0,0,0-.06-1A2.55,2.55,0,0,0,80,16.4a6.08,6.08,0,0,1-.36-1,3.19,3.19,0,0,1-.11-1,2.26,2.26,0,0,1,.32-1,3,3,0,0,1,.9-.88,5.59,5.59,0,0,1,2.4-.84,16.8,16.8,0,0,1,2.36,0,2,2,0,0,1,1.38.61,2.34,2.34,0,0,1,.56,1.44c0,.53-.12,1.1-.22,1.73s-.2,1.25-.32,1.89-.25,1.25-.38,1.85S86.29,20.24,86.19,20.72Z"/><path class="cls-1" d="M115.46,32.75a4.71,4.71,0,0,1-.61,2.08,5.49,5.49,0,0,1-1.35,1.59,6.15,6.15,0,0,1-1.79,1,4.36,4.36,0,0,1-1.85.27,3.11,3.11,0,0,1-1.6-.6,2.93,2.93,0,0,1-1.05-1.56,12.18,12.18,0,0,1-3.54,1.53,8.15,8.15,0,0,1-3.37.18,4.89,4.89,0,0,1-2.63-1.32,4.68,4.68,0,0,1-1.29-3,14.33,14.33,0,0,1,.45-4.77,13.15,13.15,0,0,1,2-4.34,12.15,12.15,0,0,1,3.4-3.26A9.79,9.79,0,0,1,106.85,19a4,4,0,0,1,1.82.52,17.4,17.4,0,0,0,1.57.78,3.1,3.1,0,0,1,1.37-1,7.4,7.4,0,0,1,1.54-.32,2.45,2.45,0,0,1,2,.63,2.1,2.1,0,0,1,.52,1.89q-.51,2.81-1.24,5.58a51.63,51.63,0,0,0-1.14,5.29,3,3,0,0,1,.11.52c0,.18.16.29.4.31a.47.47,0,0,0,.48-.25l.27-.51a1.5,1.5,0,0,1,.29-.75.29.29,0,0,1,.36-.09.6.6,0,0,1,.27.39A1.52,1.52,0,0,1,115.46,32.75Zm-6.59-8.1a4,4,0,0,0-1.06-.26,6.84,6.84,0,0,0-1.28,0,4.09,4.09,0,0,0-1.21.33,2.24,2.24,0,0,0-.88.68,6.89,6.89,0,0,0-1.67,2.67,4.19,4.19,0,0,0-.16,2.44,1.29,1.29,0,0,0,.79,1,2.35,2.35,0,0,0,1.37,0,5.47,5.47,0,0,0,1.51-.69,4.61,4.61,0,0,0,1.19-1.06,21.69,21.69,0,0,1,.73-2.68A16.92,16.92,0,0,0,108.87,24.65Z"/><path class="cls-1" d="M54.35,56.85l1.51,1.26A6.64,6.64,0,0,1,57,59.35a4.83,4.83,0,0,1,.71,1.52,6.36,6.36,0,0,1,.16,2,8.88,8.88,0,0,1-.51,2.16,9.16,9.16,0,0,1-1.08,2.14,9,9,0,0,1-1.63,1.86,6.84,6.84,0,0,1-2.15,1.26,22.22,22.22,0,0,1-4.08.88q-2,.22-4,.27c-1.35,0-2.7,0-4.05,0s-2.7,0-4,0A2.25,2.25,0,0,1,34.66,71a2.8,2.8,0,0,1-.94-1.35,2.64,2.64,0,0,1,0-1.62,2.06,2.06,0,0,1,1.12-1.26,2.53,2.53,0,0,0,.81-.82A2.82,2.82,0,0,0,36,64.88q.43-2.23.81-4c.25-1.21.48-2.33.68-3.36s.36-2,.47-2.92a22.18,22.18,0,0,0,.16-2.66,2,2,0,0,0-.28-.78l-.44-.68c-.14-.23-.28-.46-.41-.69a1.74,1.74,0,0,1-.23-.77,3.31,3.31,0,0,1,.07-1.57,3.45,3.45,0,0,1,1.82-2.21,4,4,0,0,1,1.53-.43c.36,0,.7,0,1,0a6.49,6.49,0,0,0,1.08,0c1.27,0,2.54,0,3.82-.1s2.52-.09,3.74-.06a26.15,26.15,0,0,1,3.58.36,13.08,13.08,0,0,1,3.33,1.06,4.06,4.06,0,0,1,2,2.65,5.88,5.88,0,0,1-.23,3.13,9.2,9.2,0,0,1-1.69,2.94A9,9,0,0,1,54.35,56.85ZM43.55,66c.26,0,.63,0,1.1,0a14.55,14.55,0,0,0,1.46,0q.75-.06,1.44-.18a2.13,2.13,0,0,0,1-.45,3.44,3.44,0,0,0,1-1.44,5.31,5.31,0,0,0,.36-1.82,4,4,0,0,0-.29-1.65,1.66,1.66,0,0,0-1-1,3.58,3.58,0,0,0-.72-.1c-.33,0-.7,0-1.1,0l-1.2,0a7.35,7.35,0,0,0-1,.09c-.14,1-.31,2.11-.52,3.31S43.69,65,43.55,66Zm1.58-11.27h1.26a13.56,13.56,0,0,0,1.43-.07,6.76,6.76,0,0,0,1.31-.26,2.21,2.21,0,0,0,1-.53,3.41,3.41,0,0,0,.65-1,4.33,4.33,0,0,0,.38-1.24,3.38,3.38,0,0,0,0-1.15.91.91,0,0,0-.5-.7,2.7,2.7,0,0,0-.9-.29,12.48,12.48,0,0,0-1.3-.16,12.32,12.32,0,0,0-1.35,0A6.75,6.75,0,0,0,46,49.4c-.12.79-.27,1.68-.43,2.65S45.25,53.91,45.13,54.73Z"/><path class="cls-1" d="M66.12,62.9a3.5,3.5,0,0,0-.2,2.38,2.22,2.22,0,0,0,1.14,1.35,2.4,2.4,0,0,0,1.76.1,2.88,2.88,0,0,0,1.66-1.31.44.44,0,0,0-.22-.2A.75.75,0,0,1,70,65c-.19-.07-.27-.16-.23-.28a.79.79,0,0,1,.25-.35,2.46,2.46,0,0,1,.45-.28.94.94,0,0,1,.43-.13,11.46,11.46,0,0,1,1.95-.27,6.91,6.91,0,0,1,1.91.14,3.14,3.14,0,0,1,1.4.7,1.63,1.63,0,0,1,.43,1.45,6.87,6.87,0,0,1-2.18,3.16A9.79,9.79,0,0,1,71,70.93a11.51,11.51,0,0,1-3.87.49,9.07,9.07,0,0,1-3.52-.85,6,6,0,0,1-2.9-2.38,7.42,7.42,0,0,1-1.06-3.6A14.19,14.19,0,0,1,60,60.83a12.8,12.8,0,0,1,1.36-3.53,10.73,10.73,0,0,1,2.42-2.88,9,9,0,0,1,3.49-1.78,15.28,15.28,0,0,1,3.26-.36,10.15,10.15,0,0,1,3,.43A7.11,7.11,0,0,1,75.88,54a5.28,5.28,0,0,1,1.55,2.2A5.69,5.69,0,0,1,77.8,58a5.23,5.23,0,0,1-.23,1.87,4.29,4.29,0,0,1-1.17,1.82,3.85,3.85,0,0,1-2,.81,23.76,23.76,0,0,1-4.19.36C68.76,62.83,67.39,62.85,66.12,62.9Zm6.12-3.53a2.67,2.67,0,0,0,.11-1.65,1.9,1.9,0,0,0-.74-1,2.26,2.26,0,0,0-1.26-.37,2.87,2.87,0,0,0-1.42.32,3.39,3.39,0,0,0-1.21,1,3.83,3.83,0,0,0-.66,1.78h1.22l1.39,0,1.38,0Z"/><path class="cls-1" d="M97.19,66.36a4.67,4.67,0,0,1-.61,2.08A5.49,5.49,0,0,1,95.23,70a6.23,6.23,0,0,1-1.78,1,4.43,4.43,0,0,1-1.86.27,3.11,3.11,0,0,1-1.6-.6,2.83,2.83,0,0,1-1-1.56,12.35,12.35,0,0,1-3.55,1.53,8.15,8.15,0,0,1-3.37.18,4.86,4.86,0,0,1-2.62-1.32,4.69,4.69,0,0,1-1.3-3,14.33,14.33,0,0,1,.45-4.77,13.45,13.45,0,0,1,2-4.34A12.15,12.15,0,0,1,84,54.17a10.06,10.06,0,0,1,4.63-1.53,4.13,4.13,0,0,1,1.81.52,15.09,15.09,0,0,0,1.57.78,3,3,0,0,1,1.37-1,6.8,6.8,0,0,1,1.55-.33,2.43,2.43,0,0,1,2,.63,2.08,2.08,0,0,1,.52,1.89q-.51,2.81-1.24,5.58T95,66a3.12,3.12,0,0,1,.11.53c0,.17.16.28.4.3a.47.47,0,0,0,.48-.25l.27-.51a1.6,1.6,0,0,1,.29-.75.29.29,0,0,1,.36-.09.6.6,0,0,1,.27.39A1.52,1.52,0,0,1,97.19,66.36Zm-6.59-8.1A3.67,3.67,0,0,0,89.54,58a5.48,5.48,0,0,0-1.28,0,3.67,3.67,0,0,0-1.2.32,2.3,2.3,0,0,0-.89.68,6.89,6.89,0,0,0-1.67,2.67,4.3,4.3,0,0,0-.16,2.45,1.28,1.28,0,0,0,.79,1,2.35,2.35,0,0,0,1.37,0A5.08,5.08,0,0,0,88,64.5a4.43,4.43,0,0,0,1.19-1.06,20,20,0,0,1,.74-2.68A17.88,17.88,0,0,0,90.6,58.26Z"/><path class="cls-1" d="M100.65,56.53a6.66,6.66,0,0,1-1.23-.47c-.26-.14-.37-.48-.32-1,.05-.31.1-.61.16-.91s.11-.6.16-.89a1,1,0,0,1,.38-.5,2.29,2.29,0,0,1,.61-.29,3.34,3.34,0,0,1,.7-.14,5,5,0,0,1,.62,0,21.78,21.78,0,0,0,.37-2.19,13,13,0,0,1,.45-2.13,2.86,2.86,0,0,1,.78-1.85A4.39,4.39,0,0,1,105,45a6.11,6.11,0,0,1,2-.38,4.47,4.47,0,0,1,1.87.33A2.09,2.09,0,0,1,110,46a2,2,0,0,1-.14,1.69,7.94,7.94,0,0,0-1,2.2c-.18.7-.36,1.39-.52,2.09h2.26c.46-.05.74.07.83.36a2.21,2.21,0,0,1,0,1.15q-.08.47-.18.93a4.74,4.74,0,0,1-.32.94,1.67,1.67,0,0,1-1.59,1.12,3.51,3.51,0,0,0-.41,0h-.56l-.58,0-.43,0q-.64,2.59-1.06,5.35c-.28,1.83-.47,3.59-.59,5.27a.68.68,0,0,0,.32.47,1.26,1.26,0,0,0,1.19,0,1.35,1.35,0,0,0,.47-.45,1.9,1.9,0,0,0,.25-.45c.07-.18.16-.37.25-.56s.2-.24.31-.23.19.09.27.23a1.52,1.52,0,0,1,.12.58,2.52,2.52,0,0,1-.09.79,4.63,4.63,0,0,1-1,2.27,5.39,5.39,0,0,1-1.87,1.38,6.61,6.61,0,0,1-2.29.58,6.91,6.91,0,0,1-2.25-.18,4.51,4.51,0,0,1-1.78-.88,2.43,2.43,0,0,1-.88-1.55,6.62,6.62,0,0,1-.09-2.43c.11-1,.28-2.11.52-3.28s.5-2.35.77-3.56S100.45,57.54,100.65,56.53Z"/><path class="cls-1" d="M112.92,56.53a6.5,6.5,0,0,1-1.22-.47c-.27-.14-.38-.48-.33-1,0-.31.11-.61.16-.91s.12-.6.17-.89a1,1,0,0,1,.37-.5,2.52,2.52,0,0,1,.62-.29,3.22,3.22,0,0,1,.7-.14,4.88,4.88,0,0,1,.61,0,21.85,21.85,0,0,0,.38-2.19,11.22,11.22,0,0,1,.45-2.13,2.91,2.91,0,0,1,.77-1.85,4.43,4.43,0,0,1,1.68-1.1,6.11,6.11,0,0,1,2-.38,4.5,4.5,0,0,1,1.87.33,2.09,2.09,0,0,1,1.12,1,2,2,0,0,1-.15,1.69,7.94,7.94,0,0,0-1,2.2c-.18.7-.35,1.39-.52,2.09h2.27c.45-.05.73.07.83.36a2.44,2.44,0,0,1,0,1.15q-.08.47-.18.93a4.21,4.21,0,0,1-.33.94,1.65,1.65,0,0,1-1.58,1.12,3.42,3.42,0,0,0-.41,0h-.56l-.58,0-.43,0c-.43,1.73-.79,3.51-1.06,5.35s-.48,3.59-.6,5.27a.69.69,0,0,0,.33.47,1.2,1.2,0,0,0,.57.14,1.25,1.25,0,0,0,.62-.16,1.32,1.32,0,0,0,.46-.45,1.9,1.9,0,0,0,.26-.45,5.38,5.38,0,0,1,.25-.56c.09-.17.2-.24.3-.23a.36.36,0,0,1,.27.23,1.51,1.51,0,0,1,.13.58,2.86,2.86,0,0,1-.09.79,4.64,4.64,0,0,1-1,2.27,5.3,5.3,0,0,1-1.87,1.38,6.61,6.61,0,0,1-2.28.58,6.86,6.86,0,0,1-2.25-.18,4.44,4.44,0,0,1-1.78-.88,2.44,2.44,0,0,1-.89-1.55,7.1,7.1,0,0,1-.09-2.43,32.17,32.17,0,0,1,.53-3.28c.23-1.16.49-2.35.77-3.56S112.73,57.54,112.92,56.53Z"/><path class="cls-1" d="M123.4,70.6a1.44,1.44,0,0,1-.89-.68,1.65,1.65,0,0,1-.1-1,4.06,4.06,0,0,1,.39-1.14c.21-.39.42-.76.63-1.09a5.52,5.52,0,0,0,1.08-2.49c.15-.74.3-1.49.47-2.25s.32-1.51.47-2.28c0-.19,0-.37,0-.54a4.43,4.43,0,0,1,.06-.51,1.44,1.44,0,0,0-.26-.81,3.38,3.38,0,0,1-.39-.66,2,2,0,0,1-.34-1.8,2.64,2.64,0,0,1,1.35-1.51,8.72,8.72,0,0,1,1.81-.6,8.17,8.17,0,0,1,2.06-.18,3.31,3.31,0,0,1,1.65.49,1.45,1.45,0,0,1,.63,1.4,6.64,6.64,0,0,1-.16,1.51c-.13.75-.29,1.59-.49,2.54S131,61,130.81,62s-.38,1.9-.5,2.7a3.17,3.17,0,0,0,.36,2.23,2.37,2.37,0,0,1,.34,1.28,2.71,2.71,0,0,1-.34,1.24,2.83,2.83,0,0,1-.92,1,3,3,0,0,1-1.39.47l-2.61.11A6.85,6.85,0,0,1,123.4,70.6Zm9.46-23a2.36,2.36,0,0,1,.11,1.23,3,3,0,0,1-.45,1.13,2.88,2.88,0,0,1-.92.88,3.25,3.25,0,0,1-1.26.47,4.58,4.58,0,0,1-2.5-.47A2.48,2.48,0,0,1,126.46,49a2.57,2.57,0,0,1,0-1.14,2.48,2.48,0,0,1,.52-1,3.48,3.48,0,0,1,.9-.72,3.2,3.2,0,0,1,1.17-.36,4.75,4.75,0,0,1,2.27.33A2.72,2.72,0,0,1,132.86,47.6Z"/><path class="cls-1" d="M139.45,62.9a3.5,3.5,0,0,0-.2,2.38,2.22,2.22,0,0,0,1.14,1.35,2.4,2.4,0,0,0,1.76.1,2.88,2.88,0,0,0,1.66-1.31.44.44,0,0,0-.22-.2.75.75,0,0,1-.29-.27c-.19-.07-.27-.16-.23-.28a.79.79,0,0,1,.25-.35,2.46,2.46,0,0,1,.45-.28.94.94,0,0,1,.43-.13,11.46,11.46,0,0,1,2-.27,6.91,6.91,0,0,1,1.91.14,3.14,3.14,0,0,1,1.4.7,1.63,1.63,0,0,1,.43,1.45,6.87,6.87,0,0,1-2.18,3.16,9.79,9.79,0,0,1-3.42,1.84,11.51,11.51,0,0,1-3.87.49,9.07,9.07,0,0,1-3.52-.85,6,6,0,0,1-2.9-2.38,7.42,7.42,0,0,1-1.06-3.6,14.19,14.19,0,0,1,.36-3.76,12.8,12.8,0,0,1,1.36-3.53,10.73,10.73,0,0,1,2.42-2.88,9,9,0,0,1,3.49-1.78,15.28,15.28,0,0,1,3.26-.36,10.15,10.15,0,0,1,3,.43,7.11,7.11,0,0,1,2.41,1.3,5.28,5.28,0,0,1,1.55,2.2,5.69,5.69,0,0,1,.37,1.76,5.23,5.23,0,0,1-.23,1.87,4.29,4.29,0,0,1-1.17,1.82,3.85,3.85,0,0,1-2,.81,23.76,23.76,0,0,1-4.19.36C142.09,62.83,140.72,62.85,139.45,62.9Zm6.12-3.53a2.67,2.67,0,0,0,.11-1.65,1.9,1.9,0,0,0-.74-1,2.26,2.26,0,0,0-1.26-.37,2.87,2.87,0,0,0-1.42.32,3.39,3.39,0,0,0-1.21,1,3.83,3.83,0,0,0-.66,1.78h1.22l1.39,0,1.38,0Z"/><path class="cls-2" d="M17,68.16c9.92,12,35.69,15.49,62.83,7.43,31.57-9.39,53-30.87,48-48S93,4.25,61.44,13.64C30.7,22.78,9.54,43.38,13.13,60.25"/><path class="cls-3" d="M15.5,53l1.3,5.14a5.6,5.6,0,0,0,4.08,4.08L26,63.51l-5.14,1.31A5.6,5.6,0,0,0,16.8,68.9L15.5,74,14.19,68.9a5.6,5.6,0,0,0-4.08-4.08L5,63.51l5.14-1.3a5.6,5.6,0,0,0,4.08-4.08Z"/><path class="cls-1" d="M130.57,0l1.1,4.33a4.75,4.75,0,0,0,3.43,3.43l4.33,1.09L135.1,10a4.74,4.74,0,0,0-3.43,3.43l-1.1,4.33-1.09-4.33A4.75,4.75,0,0,0,126.05,10l-4.33-1.1,4.33-1.09a4.77,4.77,0,0,0,3.43-3.43Z"/><path class="cls-1" d="M5,44.61,5.59,47A2.66,2.66,0,0,0,7.52,49l2.43.62-2.43.61a2.66,2.66,0,0,0-1.93,1.93L5,54.56l-.61-2.43A2.66,2.66,0,0,0,2.43,50.2L0,49.59,2.43,49A2.66,2.66,0,0,0,4.36,47Z"/><path class="cls-1" d="M68,45.86c-.2.35-.38.66-.55.93s-.33.52-.51.78l-.52.78c-.18.28-.38.6-.59,1-.13.17-.25.26-.38.26s-.24-.09-.31-.27-.13-.57-.21-.84-.17-.53-.27-.79-.19-.54-.29-.82-.2-.59-.29-.91c-.06.22-.12.46-.17.73l-.15.78c-.05.26-.09.51-.14.74s-.08.42-.11.57a1,1,0,0,1,.36.35.77.77,0,0,1,.1.44.89.89,0,0,1-.19.45,1.06,1.06,0,0,1-.49.33,2,2,0,0,1-.75.13,6,6,0,0,1-.73-.07.79.79,0,0,1-.52-.16.56.56,0,0,1-.19-.38.83.83,0,0,1,.11-.47A1.06,1.06,0,0,1,61.6,49a.56.56,0,0,0,.26-.41c0-.32.11-.66.17-1s.12-.73.19-1.1.13-.73.19-1.09.12-.7.17-1a.22.22,0,0,0,0-.2.57.57,0,0,0-.11-.16,1.94,1.94,0,0,1-.21-.29.88.88,0,0,1-.1-.36.67.67,0,0,1,.18-.6,1.06,1.06,0,0,1,.69-.31,5,5,0,0,1,1,0l1,.08a.59.59,0,0,1,.61.48c.06.22.11.46.17.7l.15.76.15.77c0,.26.08.5.12.74a6.26,6.26,0,0,1,.31-.66l.38-.76c.14-.25.26-.49.38-.72l.29-.55a1.35,1.35,0,0,1,1.11-.78l.47-.05h.43a3,3,0,0,1,.42,0l.45,0a1.48,1.48,0,0,1,.39.11.58.58,0,0,1,.25.21.53.53,0,0,1,.09.3.71.71,0,0,1-.14.37,2.16,2.16,0,0,1-.37.43.42.42,0,0,0-.16.17,1,1,0,0,0-.07.21c-.08.53-.16,1.1-.26,1.71s-.18,1.18-.26,1.71a1.38,1.38,0,0,0-.06.62,1.49,1.49,0,0,0,.2.53.81.81,0,0,1,.09.79,1.07,1.07,0,0,1-.67.58,3.31,3.31,0,0,1-1.1.22,4,4,0,0,1-1-.1.79.79,0,0,1-.5-.31.61.61,0,0,1,0-.61.71.71,0,0,1,.12-.2l.2-.21a1.8,1.8,0,0,1,.21-.19l.2-.15a4.93,4.93,0,0,0,.11-.52c0-.15.06-.32.09-.52s0-.42.08-.7S67.94,46.29,68,45.86Z"/><path class="cls-1" d="M72.65,47.93a1,1,0,0,0-.06.7.67.67,0,0,0,.34.41.76.76,0,0,0,.52,0,.85.85,0,0,0,.5-.39.14.14,0,0,0-.07-.06.3.3,0,0,1-.08-.08c-.06,0-.08,0-.07-.09a.2.2,0,0,1,.07-.1l.14-.09.13,0a2.54,2.54,0,0,1,.58-.08,2.13,2.13,0,0,1,.57,0,.84.84,0,0,1,.41.21.47.47,0,0,1,.13.43,2,2,0,0,1-.65.94,2.81,2.81,0,0,1-1,.55,3.43,3.43,0,0,1-1.15.15,2.71,2.71,0,0,1-1.06-.26A1.79,1.79,0,0,1,71,49.5a2.17,2.17,0,0,1-.32-1.07,4.26,4.26,0,0,1,.11-1.12,3.89,3.89,0,0,1,.41-1.06,3.26,3.26,0,0,1,.72-.85,2.65,2.65,0,0,1,1-.54,4.63,4.63,0,0,1,1-.1,2.82,2.82,0,0,1,.89.13,2.07,2.07,0,0,1,.72.38,1.49,1.49,0,0,1,.46.66,1.65,1.65,0,0,1,0,1.08,1.22,1.22,0,0,1-.35.55,1.18,1.18,0,0,1-.59.24,7.28,7.28,0,0,1-1.25.1C73.43,47.9,73,47.91,72.65,47.93Zm1.82-1.06a.78.78,0,0,0,0-.49.61.61,0,0,0-.22-.31.78.78,0,0,0-.38-.12.87.87,0,0,0-.42.1,1,1,0,0,0-.36.31,1.09,1.09,0,0,0-.2.53h1.54Z"/><path class="cls-1" d="M76.38,50.22a.42.42,0,0,1-.27-.2.47.47,0,0,1,0-.29,1.26,1.26,0,0,1,.12-.34,2.59,2.59,0,0,1,.19-.33,1.58,1.58,0,0,0,.32-.74c0-.22.09-.44.14-.67S77,47.2,77,47c0-.06,0-.11,0-.16s0-.1,0-.15a.46.46,0,0,0-.07-.24.67.67,0,0,1-.12-.2.61.61,0,0,1-.11-.54.8.8,0,0,1,.41-.45,2.84,2.84,0,0,1,.54-.18,2.6,2.6,0,0,1,.61,0,1.09,1.09,0,0,1,.5.14.44.44,0,0,1,.18.42,1.72,1.72,0,0,1,0,.45c0,.22-.09.48-.15.76s-.12.58-.18.88-.12.57-.15.8a1,1,0,0,0,.11.67.75.75,0,0,1,.1.38.93.93,0,0,1-.1.37,1,1,0,0,1-.28.29.91.91,0,0,1-.41.14l-.78,0A1.93,1.93,0,0,1,76.38,50.22Zm2.82-6.86a.77.77,0,0,1,0,.37.79.79,0,0,1-.13.33.81.81,0,0,1-.28.27,1.18,1.18,0,0,1-.37.14,1.46,1.46,0,0,1-.75-.14.79.79,0,0,1-.4-.89.73.73,0,0,1,.15-.29,1.13,1.13,0,0,1,.27-.22,1,1,0,0,1,.35-.11,1.39,1.39,0,0,1,.68.1A.81.81,0,0,1,79.2,43.36Z"/><path class="cls-1" d="M81.77,47v.7H79.11V47Z"/><path class="cls-1" d="M86.65,48.13a.51.51,0,0,1-.22-.47,1,1,0,0,1,.22-.5,1.31,1.31,0,0,1,.47-.37.82.82,0,0,1,.52-.08,1.18,1.18,0,0,1,.91.38,1.35,1.35,0,0,1,.3,1,6.34,6.34,0,0,1-.07.65,3.58,3.58,0,0,1-.2.71,2.24,2.24,0,0,1-.36.62,1.13,1.13,0,0,1-.59.38,6.1,6.1,0,0,1-1,.17c-.39,0-.77,0-1.14,0s-.74,0-1.08,0l-.84,0a2.59,2.59,0,0,1-.7-.05,1,1,0,0,1-.48-.24.51.51,0,0,1-.18-.39.75.75,0,0,1,.23-.49,1.67,1.67,0,0,1,.34-.31.48.48,0,0,0,.22-.33c.08-.37.16-.75.25-1.14l.27-1.18c.08-.38.16-.76.22-1.13s.11-.73.14-1.06a.54.54,0,0,0-.15-.35,1.42,1.42,0,0,1-.21-.29.64.64,0,0,1,0-.68,1,1,0,0,1,.64-.43,4.87,4.87,0,0,1,1.18-.17,4.7,4.7,0,0,1,1.12.13c.36.08.57.24.62.48s-.06.51-.36.8a4.58,4.58,0,0,0-.38.36.93.93,0,0,0-.2.46c-.1.51-.21,1.05-.31,1.63s-.21,1.11-.29,1.62a2.69,2.69,0,0,0,0,.49,1.18,1.18,0,0,0,.08.43.6.6,0,0,0,.24.3.59.59,0,0,0,.41.09.89.89,0,0,0,.58-.18,1.58,1.58,0,0,0,.42-.48,1,1,0,0,0,.14-.53.35.35,0,0,0-.29-.33.33.33,0,0,0-.28.2A3.21,3.21,0,0,0,86.65,48.13Z"/><path class="cls-1" d="M89.52,50.22a.43.43,0,0,1-.26-.2.47.47,0,0,1,0-.29,1.26,1.26,0,0,1,.12-.34q.09-.18.18-.33a1.6,1.6,0,0,0,.33-.74c0-.22.09-.44.14-.67s.09-.45.14-.68c0-.06,0-.11,0-.16s0-.1,0-.15a.38.38,0,0,0-.08-.24,1,1,0,0,1-.11-.2.61.61,0,0,1-.11-.54.8.8,0,0,1,.41-.45,2.84,2.84,0,0,1,.54-.18,2.56,2.56,0,0,1,.61,0,1.09,1.09,0,0,1,.5.14.44.44,0,0,1,.18.42,2.34,2.34,0,0,1,0,.45c0,.22-.09.48-.15.76s-.12.58-.18.88-.12.57-.15.8a1,1,0,0,0,.1.67.67.67,0,0,1,.11.38.8.8,0,0,1-.11.37.82.82,0,0,1-.27.29,1,1,0,0,1-.41.14l-.78,0A2,2,0,0,1,89.52,50.22Zm2.83-6.86a.77.77,0,0,1,0,.37.79.79,0,0,1-.13.33.81.81,0,0,1-.28.27,1.18,1.18,0,0,1-.37.14,1.46,1.46,0,0,1-.75-.14.79.79,0,0,1-.4-.89.73.73,0,0,1,.15-.29,1.13,1.13,0,0,1,.27-.22,1,1,0,0,1,.35-.11,1.39,1.39,0,0,1,.68.1A.81.81,0,0,1,92.35,43.36Z"/></g></g></svg>