<svg xmlns="http://www.w3.org/2000/svg" viewBox="0 0 150.05 81.86"><defs><style>.cls-1{fill:none;stroke:#1d1d1b;stroke-miterlimit:10;stroke-width:0.75px;}</style></defs><g id="Layer_2" data-name="Layer 2"><g id="Layer_1-2" data-name="Layer 1"><path class="cls-1" d="M23.42,31.28a3.51,3.51,0,0,0-1.49,1.58A1.74,1.74,0,0,0,22,34.45a3,3,0,0,0,1.57,1.17,7.28,7.28,0,0,0,3,.34,3.12,3.12,0,0,0,2-.87,2.47,2.47,0,0,0,.72-1.6,3.06,3.06,0,0,0-.46-1.76,3.37,3.37,0,0,0-1.53-1.35L25,29.62c-.84-.26-1.67-.55-2.5-.86a21.11,21.11,0,0,1-2.36-1.06,6.33,6.33,0,0,1-1.8-1.39,5.78,5.78,0,0,1-1.76-3.47,8.1,8.1,0,0,1,1.15-4.41A9,9,0,0,1,24,13.57a20.78,20.78,0,0,1,5.56-.47,16.58,16.58,0,0,1,5.09,1,5.94,5.94,0,0,1,2.87,2.07,7.58,7.58,0,0,1,1.27,3.37,2.35,2.35,0,0,1-.45,1.85,2.56,2.56,0,0,1-1.74,1l-1.35.18c-.4,0-.77.07-1.12.07a6.09,6.09,0,0,1-1-.09,11.84,11.84,0,0,1-1.17-.27,1.12,1.12,0,0,1-.76-.47,1.65,1.65,0,0,1-.11-.94A3.57,3.57,0,0,0,32.28,20a.62.62,0,0,0,.09-.72,1.52,1.52,0,0,0-.74-.53,5.86,5.86,0,0,0-1.22-.32A13,13,0,0,0,29,18.25a8.79,8.79,0,0,0-1.26,0,3.58,3.58,0,0,0-1.92.64,2.33,2.33,0,0,0-.89,1.19,1.74,1.74,0,0,0,.18,1.32,2.57,2.57,0,0,0,1.3,1.06,17.58,17.58,0,0,0,1.78.83c.66.26,1.33.51,2,.75l2,.7c.65.23,1.24.45,1.76.67A6,6,0,0,1,37,28a6.65,6.65,0,0,1,.65,4.07,12.07,12.07,0,0,1-.78,3.13A10.48,10.48,0,0,1,35.3,38a9.9,9.9,0,0,1-2.45,2.18,10.63,10.63,0,0,1-3.27,1.35,18.84,18.84,0,0,1-11.77-.9A7.27,7.27,0,0,1,16,39.4a5.5,5.5,0,0,1-1.33-1.77,3.78,3.78,0,0,1-.34-2.1,4.33,4.33,0,0,1,1.09-2.27,6.22,6.22,0,0,1,2.06-1.55A10.86,10.86,0,0,1,19.79,31a8.07,8.07,0,0,1,1.81-.14A4.68,4.68,0,0,1,23.42,31.28Z"/><path class="cls-1" d="M58,35.27a4.71,4.71,0,0,1-.61,2.09A5.62,5.62,0,0,1,56.06,39a6.15,6.15,0,0,1-1.79,1,4.7,4.7,0,0,1-1.85.27,3.11,3.11,0,0,1-1.6-.6,3,3,0,0,1-1-1.56,12.18,12.18,0,0,1-3.54,1.53,8.15,8.15,0,0,1-3.37.18,4.89,4.89,0,0,1-2.63-1.32,4.69,4.69,0,0,1-1.29-3,14.38,14.38,0,0,1,.45-4.77,13.19,13.19,0,0,1,2-4.33,12,12,0,0,1,3.4-3.26,9.79,9.79,0,0,1,4.62-1.53,4,4,0,0,1,1.82.52,17.05,17.05,0,0,0,1.57.77,3.07,3.07,0,0,1,1.37-1,6.81,6.81,0,0,1,1.54-.32,2.45,2.45,0,0,1,2,.63,2.1,2.1,0,0,1,.52,1.89q-.51,2.81-1.24,5.58A51.63,51.63,0,0,0,55.82,35a3,3,0,0,1,.11.52c0,.18.16.28.4.31a.49.49,0,0,0,.48-.25l.27-.51a1.5,1.5,0,0,1,.29-.75.29.29,0,0,1,.36-.09.6.6,0,0,1,.27.39A1.48,1.48,0,0,1,58,35.27Zm-6.59-8.1a4,4,0,0,0-1.06-.25,5.48,5.48,0,0,0-1.28,0,4.09,4.09,0,0,0-1.21.33,2.15,2.15,0,0,0-.88.68,6.93,6.93,0,0,0-1.67,2.66A4.22,4.22,0,0,0,45.17,33,1.3,1.3,0,0,0,46,34.09a2.28,2.28,0,0,0,1.37,0,5.43,5.43,0,0,0,1.51-.68A4.61,4.61,0,0,0,50,32.36a21.69,21.69,0,0,1,.73-2.68A16.72,16.72,0,0,0,51.43,27.17Z"/><path class="cls-1" d="M64.71,33a2.86,2.86,0,0,0-.65,1.62,1.53,1.53,0,0,0,.87,1.15,5,5,0,0,0,1.38.53,5.34,5.34,0,0,0,1.68.12A3.58,3.58,0,0,0,69.5,36a2,2,0,0,0,.9-1.32,1.28,1.28,0,0,0-.57-1.51c-.77-.29-1.51-.55-2.22-.77s-1.37-.46-2-.69-1.22-.47-1.8-.72a10.54,10.54,0,0,1-1.62-.88A3.63,3.63,0,0,1,60.93,28a5.05,5.05,0,0,1,.18-2.43,6.72,6.72,0,0,1,1.35-2.3,7,7,0,0,1,2.25-1.69,9.14,9.14,0,0,1,2.79-.9,15.19,15.19,0,0,1,3.66-.22,12.74,12.74,0,0,1,3.65.74,6,6,0,0,1,2.79,2,2.45,2.45,0,0,1,.4,2,3.55,3.55,0,0,1-1.19,2,4.61,4.61,0,0,1-1.21.68,4.93,4.93,0,0,1-1.33.31A4.63,4.63,0,0,1,73,28a2.41,2.41,0,0,1-1.07-.54A1.64,1.64,0,0,1,71.34,26a2.42,2.42,0,0,0,0-.85.81.81,0,0,0-.49-.59,1.65,1.65,0,0,0-1.36-.07,2.89,2.89,0,0,0-1.19.75,2,2,0,0,0-.54,1.16,1.16,1.16,0,0,0,.57,1.11,4.27,4.27,0,0,0,1.17.67,11.77,11.77,0,0,0,1.28.39l1.3.33a13.11,13.11,0,0,1,1.26.38,5.57,5.57,0,0,1,2.5,1.56A4.84,4.84,0,0,1,77,33.58a4,4,0,0,1-.18,1.75A8.5,8.5,0,0,1,76,37.11a8,8,0,0,1-1.2,1.58,6.15,6.15,0,0,1-1.43,1.12,7.72,7.72,0,0,1-2.61,1,19,19,0,0,1-3.56.4,20.43,20.43,0,0,1-3.69-.27,8.23,8.23,0,0,1-3-1,2.66,2.66,0,0,1-1.3-1,3.76,3.76,0,0,1-.59-1.55,3.8,3.8,0,0,1,.14-1.73,3.74,3.74,0,0,1,1-1.57,3.78,3.78,0,0,1,1.11-.81,5.74,5.74,0,0,1,1.35-.43,4.76,4.76,0,0,1,1.35-.05A3.36,3.36,0,0,1,64.71,33Z"/><path class="cls-1" d="M87.72,23.25c.48-.14.93-.29,1.35-.43a10.14,10.14,0,0,1,1.24-.36,9.35,9.35,0,0,1,2.39-.13,5.71,5.71,0,0,1,2,.51A3.77,3.77,0,0,1,96.16,24a3.44,3.44,0,0,1,.67,1.73,13.68,13.68,0,0,1,0,3c-.13,1-.29,2-.51,3s-.45,2-.7,2.94-.45,1.92-.6,2.86c-.11.72-.19,1.33-.23,1.84A3,3,0,0,0,95,40.62a2.57,2.57,0,0,0,.76,1,6.38,6.38,0,0,0,1.58.88,1,1,0,0,1,.53.41.54.54,0,0,1,0,.45.91.91,0,0,1-.41.36,1.41,1.41,0,0,1-.65.15,17.18,17.18,0,0,1-3.66-.43A5.19,5.19,0,0,1,90.49,42a4.89,4.89,0,0,1-1.22-2.8,12.82,12.82,0,0,1,.39-4.56c.07-.48.17-1,.29-1.6s.23-1.19.34-1.8a16.58,16.58,0,0,0,.22-1.76,5.87,5.87,0,0,0-.09-1.5,1.16,1.16,0,0,0-.87-.81,2.12,2.12,0,0,0-1.36.06,2.61,2.61,0,0,0-.42.16l-.34.16a.92.92,0,0,0-.61.79c-.2.94-.39,1.88-.58,2.83s-.37,1.88-.54,2.79a3,3,0,0,0-.07.92,2.75,2.75,0,0,0,.22.84A3.75,3.75,0,0,1,86.21,37,2.56,2.56,0,0,1,86,38.23a2.11,2.11,0,0,1-1.17,1.31,5.44,5.44,0,0,1-2,.49A12.47,12.47,0,0,1,80.57,40a12.63,12.63,0,0,1-2-.36.24.24,0,0,0-.13-.07.19.19,0,0,1-.12-.07,1.71,1.71,0,0,1-.88-1.21,2.82,2.82,0,0,1,.45-1.67,3.16,3.16,0,0,1,.34-.5l.41-.51a6.19,6.19,0,0,0,.51-.75,2.81,2.81,0,0,0,.28-.83c.32-1.95.66-3.84,1-5.69s.73-3.71,1-5.58q.07-.36.15-.9t.09-1.08a5.77,5.77,0,0,0-.06-1,2.9,2.9,0,0,0-.21-.77,6.4,6.4,0,0,1-.36-1,2.94,2.94,0,0,1-.11-1.05,2.26,2.26,0,0,1,.32-1,2.71,2.71,0,0,1,.9-.88,5.62,5.62,0,0,1,2.4-.85,16.71,16.71,0,0,1,2.35,0,2,2,0,0,1,1.39.61A2.41,2.41,0,0,1,89,16.16c0,.53-.12,1.1-.22,1.73s-.2,1.25-.32,1.89-.25,1.25-.38,1.85S87.81,22.77,87.72,23.25Z"/><path class="cls-1" d="M117,35.27a4.59,4.59,0,0,1-.61,2.09A5.62,5.62,0,0,1,115,39a6.1,6.1,0,0,1-1.78,1,4.75,4.75,0,0,1-1.85.27,3.14,3.14,0,0,1-1.61-.6,3,3,0,0,1-1-1.56,12.12,12.12,0,0,1-3.55,1.53,8.11,8.11,0,0,1-3.36.18,4.89,4.89,0,0,1-2.63-1.32,4.74,4.74,0,0,1-1.3-3,14.38,14.38,0,0,1,.45-4.77,13.39,13.39,0,0,1,2-4.33,12.14,12.14,0,0,1,3.4-3.26,9.83,9.83,0,0,1,4.63-1.53,4.08,4.08,0,0,1,1.82.52c.59.32,1.11.58,1.56.77a3.13,3.13,0,0,1,1.37-1,6.89,6.89,0,0,1,1.55-.32,2.43,2.43,0,0,1,2,.63,2.08,2.08,0,0,1,.52,1.89c-.33,1.87-.75,3.73-1.24,5.58A51.48,51.48,0,0,0,114.79,35a4.36,4.36,0,0,1,.11.52c0,.18.15.28.39.31a.52.52,0,0,0,.49-.25q.12-.26.27-.51a1.5,1.5,0,0,1,.29-.75.29.29,0,0,1,.36-.09.6.6,0,0,1,.27.39A1.49,1.49,0,0,1,117,35.27Zm-6.58-8.1a4.11,4.11,0,0,0-1.07-.25,5.39,5.39,0,0,0-1.27,0,3.93,3.93,0,0,0-1.21.33,2.09,2.09,0,0,0-.88.68,6.84,6.84,0,0,0-1.68,2.66,4.31,4.31,0,0,0-.16,2.45,1.32,1.32,0,0,0,.79,1.05,2.28,2.28,0,0,0,1.37,0,5.18,5.18,0,0,0,1.51-.68A4.45,4.45,0,0,0,109,32.36a21.6,21.6,0,0,1,.74-2.68A16.72,16.72,0,0,0,110.4,27.17Z"/><path class="cls-1" d="M52.88,55.38l1.51,1.26a6.64,6.64,0,0,1,1.15,1.24,4.81,4.81,0,0,1,.7,1.52,6.33,6.33,0,0,1,.17,2,9.82,9.82,0,0,1-1.59,4.3,9,9,0,0,1-1.64,1.86A6.58,6.58,0,0,1,51,68.84a21.63,21.63,0,0,1-4.08.89q-2,.22-4.05.27c-1.35,0-2.7,0-4,0s-2.7,0-4,0a2.23,2.23,0,0,1-1.65-.49,2.8,2.8,0,0,1-.94-1.35,2.64,2.64,0,0,1,0-1.62,2.06,2.06,0,0,1,1.12-1.26,2.46,2.46,0,0,0,.81-.83,2.77,2.77,0,0,0,.34-1q.43-2.23.81-4c.25-1.21.48-2.33.68-3.37s.36-2,.47-2.91a22.22,22.22,0,0,0,.16-2.67,2,2,0,0,0-.29-.77c-.14-.23-.28-.46-.43-.68s-.28-.46-.41-.69a1.93,1.93,0,0,1-.24-.77,3.44,3.44,0,0,1,.08-1.57A3.59,3.59,0,0,1,36,44.64a3.49,3.49,0,0,1,1.15-.92,4,4,0,0,1,1.53-.43q.54,0,1.05,0a6.48,6.48,0,0,0,1.08,0c1.27,0,2.54,0,3.81-.11s2.52-.09,3.75-.05a26.15,26.15,0,0,1,3.58.36,12.93,12.93,0,0,1,3.33,1.06,4.1,4.1,0,0,1,2,2.65A5.88,5.88,0,0,1,57,50.36a9.34,9.34,0,0,1-1.69,2.93A8.84,8.84,0,0,1,52.88,55.38Zm-10.8,9.15h1.1a14.26,14.26,0,0,0,1.45,0q.76-.06,1.44-.18a2.22,2.22,0,0,0,1-.45,3.44,3.44,0,0,0,1-1.44,5.31,5.31,0,0,0,.36-1.82A4.23,4.23,0,0,0,48.18,59a1.67,1.67,0,0,0-1-1,3.58,3.58,0,0,0-.72-.1c-.34,0-.7,0-1.1,0l-1.2,0a7.35,7.35,0,0,0-1.05.09c-.14,1-.32,2.11-.52,3.31S42.22,63.54,42.08,64.53Zm1.58-11.27h1.26c.48,0,1,0,1.42-.07a7.53,7.53,0,0,0,1.32-.26,2.22,2.22,0,0,0,1-.54,3.35,3.35,0,0,0,.65-1,4.43,4.43,0,0,0,.38-1.24,3.38,3.38,0,0,0,0-1.15.89.89,0,0,0-.51-.7,2.55,2.55,0,0,0-.9-.29,14.14,14.14,0,0,0-2.64-.2,6.64,6.64,0,0,0-1.06.09c-.12.79-.27,1.67-.44,2.65S43.78,52.44,43.66,53.26Z"/><path class="cls-1" d="M64.65,61.43a3.44,3.44,0,0,0-.2,2.38,2.28,2.28,0,0,0,1.14,1.35,2.45,2.45,0,0,0,1.76.1A2.92,2.92,0,0,0,69,64a.44.44,0,0,0-.22-.2.69.69,0,0,1-.29-.27c-.19-.07-.27-.17-.23-.29a.7.7,0,0,1,.25-.34,2.49,2.49,0,0,1,.45-.29,1,1,0,0,1,.43-.12,9.76,9.76,0,0,1,1.95-.27,6.8,6.8,0,0,1,1.9.14,3,3,0,0,1,1.41.7,1.61,1.61,0,0,1,.43,1.44,6.85,6.85,0,0,1-2.18,3.17,10,10,0,0,1-3.42,1.84,11.5,11.5,0,0,1-3.87.48,8.94,8.94,0,0,1-3.53-.84,6.05,6.05,0,0,1-2.89-2.38,7.53,7.53,0,0,1-1.07-3.6,14.58,14.58,0,0,1,.36-3.76,13,13,0,0,1,1.37-3.53A10.88,10.88,0,0,1,62.27,53a8.93,8.93,0,0,1,3.5-1.78A15.26,15.26,0,0,1,69,50.81a9.74,9.74,0,0,1,3,.43,7.06,7.06,0,0,1,2.42,1.3A5.14,5.14,0,0,1,76,54.73a5.49,5.49,0,0,1,.38,1.77,5.23,5.23,0,0,1-.23,1.87,4.29,4.29,0,0,1-1.17,1.82,3.85,3.85,0,0,1-2,.81,23.84,23.84,0,0,1-4.19.36C67.28,61.36,65.92,61.38,64.65,61.43Zm6.12-3.53a2.67,2.67,0,0,0,.11-1.65,2,2,0,0,0-.74-1,2.34,2.34,0,0,0-1.26-.38,3,3,0,0,0-1.42.33,3.39,3.39,0,0,0-1.21,1A3.68,3.68,0,0,0,65.59,58h1.22c.46,0,.92,0,1.39,0l1.38,0Z"/><path class="cls-1" d="M95.72,64.88A4.71,4.71,0,0,1,95.11,67a5.49,5.49,0,0,1-1.35,1.59,6.15,6.15,0,0,1-1.79,1,4.36,4.36,0,0,1-1.85.27,3.11,3.11,0,0,1-1.6-.6,2.93,2.93,0,0,1-1-1.56,12.18,12.18,0,0,1-3.54,1.53,8.15,8.15,0,0,1-3.37.18,4.89,4.89,0,0,1-2.63-1.32,4.68,4.68,0,0,1-1.29-3,14.33,14.33,0,0,1,.45-4.77,13.15,13.15,0,0,1,2-4.34,12.15,12.15,0,0,1,3.4-3.26,9.79,9.79,0,0,1,4.62-1.53,4,4,0,0,1,1.82.52,17.4,17.4,0,0,0,1.57.78,3.1,3.1,0,0,1,1.37-1,7.4,7.4,0,0,1,1.54-.32,2.45,2.45,0,0,1,2,.63,2.1,2.1,0,0,1,.52,1.89q-.51,2.81-1.24,5.58a51.63,51.63,0,0,0-1.14,5.29,3,3,0,0,1,.11.52c0,.18.16.29.4.31a.47.47,0,0,0,.48-.25l.27-.51a1.5,1.5,0,0,1,.29-.75.29.29,0,0,1,.36-.09.6.6,0,0,1,.27.39A1.48,1.48,0,0,1,95.72,64.88Zm-6.59-8.09a4,4,0,0,0-1.06-.26,6.84,6.84,0,0,0-1.28,0,4.09,4.09,0,0,0-1.21.33,2.24,2.24,0,0,0-.88.68A6.89,6.89,0,0,0,83,60.21a4.19,4.19,0,0,0-.16,2.44,1.29,1.29,0,0,0,.79,1.05,2.35,2.35,0,0,0,1.37,0A5.47,5.47,0,0,0,86.54,63,4.61,4.61,0,0,0,87.73,62a21.69,21.69,0,0,1,.73-2.68A16.92,16.92,0,0,0,89.13,56.79Z"/><path class="cls-1" d="M99.17,55.06A7.29,7.29,0,0,1,98,54.59c-.26-.14-.37-.48-.32-1,0-.31.1-.62.16-.92s.11-.59.16-.88a1,1,0,0,1,.38-.5,2.29,2.29,0,0,1,.61-.29,3.34,3.34,0,0,1,.7-.14,5,5,0,0,1,.61,0,19.5,19.5,0,0,0,.38-2.2,11.12,11.12,0,0,1,.45-2.12,2.91,2.91,0,0,1,.77-1.85,4.31,4.31,0,0,1,1.68-1.1,6.11,6.11,0,0,1,2-.38,4.64,4.64,0,0,1,1.87.32,2.1,2.1,0,0,1,1.12,1,2,2,0,0,1-.14,1.69,7.4,7.4,0,0,0-1,2.2c-.18.69-.36,1.39-.53,2.09h2.27c.46-.05.73.07.83.36A2.44,2.44,0,0,1,110,52q-.08.47-.18.93a4.74,4.74,0,0,1-.32.94A1.67,1.67,0,0,1,107.92,55h-.41a5.15,5.15,0,0,1-.56,0l-.58,0-.43,0q-.64,2.59-1.06,5.34c-.28,1.84-.47,3.6-.6,5.28a.71.71,0,0,0,.33.47,1.21,1.21,0,0,0,.58.14,1.24,1.24,0,0,0,.61-.16,1.44,1.44,0,0,0,.47-.45,2.33,2.33,0,0,0,.25-.45,5.38,5.38,0,0,1,.25-.56c.09-.17.2-.25.31-.23s.19.09.27.23a1.48,1.48,0,0,1,.12.58,2.86,2.86,0,0,1-.09.79,4.64,4.64,0,0,1-1,2.26,5.29,5.29,0,0,1-1.87,1.39,7.08,7.08,0,0,1-4.54.4,4.58,4.58,0,0,1-1.78-.88,2.43,2.43,0,0,1-.88-1.55,6.62,6.62,0,0,1-.09-2.43A32,32,0,0,1,97.7,62c.24-1.16.49-2.35.77-3.56S99,56.07,99.17,55.06Z"/><path class="cls-1" d="M111.45,55.06a7.29,7.29,0,0,1-1.22-.47c-.27-.14-.38-.48-.33-1,0-.31.1-.62.16-.92s.12-.59.17-.88a.94.94,0,0,1,.37-.5,2.36,2.36,0,0,1,.62-.29,3.22,3.22,0,0,1,.7-.14,4.88,4.88,0,0,1,.61,0,22,22,0,0,0,.38-2.2,11.12,11.12,0,0,1,.45-2.12,2.81,2.81,0,0,1,.77-1.85,4.31,4.31,0,0,1,1.68-1.1,6.06,6.06,0,0,1,2-.38,4.67,4.67,0,0,1,1.87.32,2.1,2.1,0,0,1,1.12,1,2,2,0,0,1-.15,1.69,7.94,7.94,0,0,0-1,2.2c-.18.69-.35,1.39-.52,2.09h2.27c.45-.05.73.07.83.36a2.44,2.44,0,0,1,0,1.15c-.05.31-.11.62-.19.93a4.18,4.18,0,0,1-.32.94A1.65,1.65,0,0,1,120.2,55h-.42a5,5,0,0,1-.55,0l-.58,0-.43,0q-.64,2.59-1.07,5.34c-.27,1.84-.47,3.6-.59,5.28a.71.71,0,0,0,.33.47,1.24,1.24,0,0,0,1.18,0,1.27,1.27,0,0,0,.47-.45,1.6,1.6,0,0,0,.25-.45c.08-.18.16-.37.26-.56s.19-.25.3-.23a.36.36,0,0,1,.27.23,1.66,1.66,0,0,1,.13.58,2.86,2.86,0,0,1-.09.79,4.57,4.57,0,0,1-1,2.26,5.21,5.21,0,0,1-1.87,1.39,7,7,0,0,1-4.53.4,4.62,4.62,0,0,1-1.79-.88,2.47,2.47,0,0,1-.88-1.55,6.62,6.62,0,0,1-.09-2.43c.11-1,.28-2.11.52-3.28s.5-2.35.78-3.56S111.26,56.07,111.45,55.06Z"/><path class="cls-1" d="M121.92,69.13a1.42,1.42,0,0,1-.88-.68,1.57,1.57,0,0,1-.1-1,3.77,3.77,0,0,1,.39-1.14,11.16,11.16,0,0,1,.63-1.09A5.52,5.52,0,0,0,123,62.76c.15-.74.3-1.49.47-2.25s.32-1.52.47-2.28c0-.2,0-.38,0-.54s0-.34,0-.51a1.37,1.37,0,0,0-.25-.81,3.38,3.38,0,0,1-.39-.66,2,2,0,0,1-.35-1.8,2.72,2.72,0,0,1,1.35-1.52,8.84,8.84,0,0,1,1.82-.59,7.28,7.28,0,0,1,2-.18,3.35,3.35,0,0,1,1.66.49,1.48,1.48,0,0,1,.63,1.4,7.35,7.35,0,0,1-.16,1.51c-.13.75-.3,1.59-.49,2.54s-.39,1.93-.61,2.93-.38,1.91-.5,2.7a3.16,3.16,0,0,0,.36,2.23,2.39,2.39,0,0,1,.34,1.28A2.72,2.72,0,0,1,129.2,68a3,3,0,0,1-.92,1,2.91,2.91,0,0,1-1.39.46c-1,.05-1.85.09-2.61.11A6.69,6.69,0,0,1,121.92,69.13Zm9.47-23a2.33,2.33,0,0,1,.11,1.22,3,3,0,0,1-.45,1.14,2.88,2.88,0,0,1-.92.88,3.25,3.25,0,0,1-1.26.47,4.68,4.68,0,0,1-2.5-.47A2.51,2.51,0,0,1,125,47.53a2.54,2.54,0,0,1,0-1.13,2.48,2.48,0,0,1,.52-1,3.18,3.18,0,0,1,2.07-1.08,4.89,4.89,0,0,1,2.27.32A2.74,2.74,0,0,1,131.39,46.13Z"/><path class="cls-1" d="M138,61.43a3.44,3.44,0,0,0-.2,2.38,2.28,2.28,0,0,0,1.14,1.35,2.45,2.45,0,0,0,1.76.1A2.92,2.92,0,0,0,142.34,64a.44.44,0,0,0-.22-.2.69.69,0,0,1-.29-.27c-.19-.07-.27-.17-.23-.29a.7.7,0,0,1,.25-.34,2.49,2.49,0,0,1,.45-.29,1,1,0,0,1,.43-.12,9.76,9.76,0,0,1,2-.27,6.8,6.8,0,0,1,1.9.14A3,3,0,0,1,148,63a1.61,1.61,0,0,1,.43,1.44,6.85,6.85,0,0,1-2.18,3.17,10,10,0,0,1-3.42,1.84,11.5,11.5,0,0,1-3.87.48,9,9,0,0,1-3.53-.84,6.05,6.05,0,0,1-2.89-2.38,7.53,7.53,0,0,1-1.07-3.6,15,15,0,0,1,.36-3.76,13,13,0,0,1,1.37-3.53A10.88,10.88,0,0,1,135.6,53a8.93,8.93,0,0,1,3.5-1.78,15.26,15.26,0,0,1,3.25-.36,9.74,9.74,0,0,1,3,.43,7.06,7.06,0,0,1,2.42,1.3,5.14,5.14,0,0,1,1.54,2.19,5.49,5.49,0,0,1,.38,1.77,5.23,5.23,0,0,1-.23,1.87,4.29,4.29,0,0,1-1.17,1.82,3.85,3.85,0,0,1-2,.81,23.76,23.76,0,0,1-4.19.36C140.61,61.36,139.25,61.38,138,61.43Zm6.12-3.53a2.67,2.67,0,0,0,.11-1.65,2,2,0,0,0-.74-1,2.34,2.34,0,0,0-1.26-.38,3,3,0,0,0-1.42.33,3.39,3.39,0,0,0-1.21,1,3.68,3.68,0,0,0-.66,1.78h1.22c.46,0,.92,0,1.39,0l1.38,0Z"/><path class="cls-1" d="M29.05,32.07Q26.85,34,24.94,35.93"/><path class="cls-1" d="M14.67,61.44c-1.36-6.41.77-13.34,5.6-20"/><path class="cls-1" d="M18.61,69.49h0l0,0c10,12.18,36.08,15.71,63.49,7.51a106.64,106.64,0,0,0,17.64-7h0"/><path class="cls-1" d="M117.52,58.2h0c1.3-1.16,2.51-2.33,3.65-3.53l.42-.45A47.13,47.13,0,0,0,125.83,49"/><path class="cls-1" d="M36.06,26.76A101.56,101.56,0,0,1,63.51,14.05c31.93-9.54,62-3.19,67.12,14.21,1.52,5.12.7,10.62-2,16.08"/><path class="cls-1" d="M109.56,64.33c-.69.47-1.4.93-2.12,1.38"/><path class="cls-1" d="M17,54.52l1.3,5.14a5.65,5.65,0,0,0,4.08,4.08L27.54,65l-5.14,1.3a5.66,5.66,0,0,0-4.08,4.08L17,75.56l-1.3-5.14a5.65,5.65,0,0,0-4.08-4.08L6.5,65l5.14-1.3a5.63,5.63,0,0,0,4.08-4.08Z"/><path class="cls-1" d="M132.1,1.53l1.1,4.32a4.73,4.73,0,0,0,3.43,3.44L141,10.38l-4.33,1.1a4.7,4.7,0,0,0-3.43,3.43l-1.1,4.33L131,14.91a4.73,4.73,0,0,0-3.44-3.43l-4.32-1.1,4.32-1.09A4.76,4.76,0,0,0,131,5.85Z"/><path class="cls-1" d="M6.5,46.14l.62,2.43A2.66,2.66,0,0,0,9.05,50.5l2.43.62-2.43.61a2.66,2.66,0,0,0-1.93,1.93L6.5,56.09l-.61-2.43A2.66,2.66,0,0,0,4,51.73l-2.43-.61L4,50.5a2.66,2.66,0,0,0,1.93-1.93Z"/></g></g></svg>