<svg id="Layer_2" data-name="Layer 2"
  xmlns="http://www.w3.org/2000/svg" width="150" height="150" viewBox="0 0 150 150">
  <g id="Layer_1" data-name="Layer 1" transform="translate(0 0)">
    <circle id="Ellipse_12" data-name="Ellipse 12" cx="75" cy="75" r="75" fill="#dd928a"/>
    <g id="Group_53" data-name="Group 53">
      <path id="Path_390" data-name="Path 390" d="M31.168,30.56,24,19.305l1.357-.854,3.218,5,5.993-3.782-3.157-5.017,1.357-.854,7.107,11.255-1.357.854-3.187-5.033-5.993,3.8,3.172,5.033Z" transform="translate(12.6 7.245)" fill="#2a7fd9"/>
      <path id="Path_391" data-name="Path 391" d="M39.6,23.729a4.148,4.148,0,0,1-1.754.214,2.9,2.9,0,0,1-1.525-.61,3.05,3.05,0,0,1-.869-1.373,2.669,2.669,0,0,1-.122-1.434,2.3,2.3,0,0,1,.595-1.083,4.712,4.712,0,0,1,1.037-.839c.4-.244.808-.458,1.235-.671l1.342-.641a2.074,2.074,0,0,0,.717-.458.549.549,0,0,0,.092-.58h0a2.089,2.089,0,0,0-.976-1.251,2.12,2.12,0,0,0-1.678,0A2.791,2.791,0,0,0,36.168,16a2.9,2.9,0,0,0-.5,1.266H34.14a3.355,3.355,0,0,1,.534-1.678,4.026,4.026,0,0,1,1.083-1.251,5.81,5.81,0,0,1,1.388-.671,6.1,6.1,0,0,1,1.083-.244,3.721,3.721,0,0,1,1.3,0,2.638,2.638,0,0,1,1.266.7,3.843,3.843,0,0,1,.976,1.739L43.854,22.1l-1.449.488L41.979,21.3H41.9a2.882,2.882,0,0,1-.275.824,2.913,2.913,0,0,1-.717.9A3.675,3.675,0,0,1,39.6,23.729Zm-.214-1.373a3.05,3.05,0,0,0,1.342-.839,2.471,2.471,0,0,0,.534-2.394L40.8,17.781c0,.107-.137.214-.336.336a6.191,6.191,0,0,1-.656.4l-.747.381-.58.275a6.817,6.817,0,0,0-.991.595,2.059,2.059,0,0,0-.625.747,1.342,1.342,0,0,0,0,.976,1.373,1.373,0,0,0,.946.961A2.684,2.684,0,0,0,39.386,22.356Z" transform="translate(17.924 7.016)" fill="#2a7fd9"/>
      <path id="Path_392" data-name="Path 392" d="M49.25,11.64,46.81,21.995l-1.525.2-4.9-9.455,1.647-.2,3.721,7.549H45.9l1.739-8.235Z" transform="translate(21.205 6.111)" fill="#2a7fd9"/>
      <path id="Path_393" data-name="Path 393" d="M51.931,22.041a4.575,4.575,0,0,1-2.425-.778,4.087,4.087,0,0,1-1.525-1.922,5.978,5.978,0,0,1-.351-2.715,6.451,6.451,0,0,1,.778-2.654,4.575,4.575,0,0,1,1.723-1.708,4.209,4.209,0,0,1,2.41-.458,4.788,4.788,0,0,1,1.525.381,3.95,3.95,0,0,1,1.312.946,4.209,4.209,0,0,1,.869,1.617,6.451,6.451,0,0,1,.183,2.379v.641l-7.625-.625.107-1.312,6.1.488A3.126,3.126,0,0,0,54.8,14.8a2.486,2.486,0,0,0-.854-1.113,2.684,2.684,0,0,0-1.418-.5,2.76,2.76,0,0,0-1.6.32,2.913,2.913,0,0,0-1.113,1.083,3.324,3.324,0,0,0-.488,1.525l-.076.885a4.087,4.087,0,0,0,.244,1.937,2.714,2.714,0,0,0,.991,1.281,3.172,3.172,0,0,0,1.6.534,3.66,3.66,0,0,0,1.1-.076,2.333,2.333,0,0,0,.884-.458,2.272,2.272,0,0,0,.625-.824l1.525.534a3.386,3.386,0,0,1-.9,1.266,3.919,3.919,0,0,1-1.434.763A4.834,4.834,0,0,1,51.931,22.041Z" transform="translate(24.99 6.187)" fill="#2a7fd9"/>
      <path id="Path_394" data-name="Path 394" d="M58.275,23.543l-1.525-.671L66.6,12.67l1.525.671-.915,14.152-1.525-.686.885-11.849H66.48Zm2.684-4.5,6.222,2.76-.58,1.312-6.222-2.76Z" transform="translate(29.795 6.652)" fill="#2a7fd9"/>
      <path id="Path_395" data-name="Path 395" d="M83.807,26.007l-9.394,9.409-1.113-1.1L75.556,21.8l-.107-.092-7.366,7.4L66.94,27.975l9.394-9.425,1.1,1.1L75.175,32.2l.091.091,7.4-7.412Z" transform="translate(35.145 9.739)" fill="#2a7fd9"/>
      <path id="Path_396" data-name="Path 396" d="M72.65,33.624,80.809,28l.869,1.266-8.22,5.658Zm10.035-5.963a1.052,1.052,0,0,1-.183-.793.946.946,0,0,1,.412-.686.976.976,0,0,1,.793-.153,1.067,1.067,0,0,1,.686.458,1.083,1.083,0,0,1,.183.808,1.006,1.006,0,0,1-1.2.839,1.037,1.037,0,0,1-.686-.442Z" transform="translate(38.143 13.651)" fill="#2a7fd9"/>
      <path id="Path_397" data-name="Path 397" d="M75.35,37.985a4.27,4.27,0,0,1-.473-2.41,4.178,4.178,0,0,1,.961-2.2,6.222,6.222,0,0,1,2.135-1.662A6.1,6.1,0,0,1,80.642,31a4.377,4.377,0,0,1,2.333.61,4.255,4.255,0,0,1,1.632,1.83,4.484,4.484,0,0,1,.473,1.876,3.69,3.69,0,0,1-.366,1.784,3.446,3.446,0,0,1-1.174,1.312l-.671-1.373a2.532,2.532,0,0,0,.747-1.235,2.333,2.333,0,0,0-.244-1.677,2.73,2.73,0,0,0-1.1-1.2,3.187,3.187,0,0,0-1.632-.4,5.536,5.536,0,0,0-3.584,1.754,3.05,3.05,0,0,0-.747,1.525,2.592,2.592,0,0,0,.29,1.571,2.623,2.623,0,0,0,.656.885,2.135,2.135,0,0,0,.9.473,2.226,2.226,0,0,0,1.052,0l.671,1.373a3.416,3.416,0,0,1-1.708.122,3.477,3.477,0,0,1-1.525-.717,4.377,4.377,0,0,1-1.3-1.525Z" transform="translate(39.301 16.275)" fill="#2a7fd9"/>
      <path id="Path_398" data-name="Path 398" d="M77.371,43.6a4.758,4.758,0,0,1,0-2.577,4.194,4.194,0,0,1,1.357-1.983,5.948,5.948,0,0,1,2.471-1.2,6.344,6.344,0,0,1,2.76-.122A4.438,4.438,0,0,1,86.11,38.8a4.209,4.209,0,0,1,1.22,2.135,4.819,4.819,0,0,1,.122,1.525,3.767,3.767,0,0,1-.473,1.525,4.148,4.148,0,0,1-1.25,1.342,6.359,6.359,0,0,1-2.2.93l-.625.168-1.876-7.457,1.281-.336,1.525,5.948a3.386,3.386,0,0,0,1.388-.686,2.531,2.531,0,0,0,.824-1.113,2.608,2.608,0,0,0,0-1.525,2.654,2.654,0,0,0-.824-1.433,3.05,3.05,0,0,0-1.388-.7,3.492,3.492,0,0,0-1.525,0l-.854.214a4.194,4.194,0,0,0-1.754.854,2.638,2.638,0,0,0-.885,1.357,3.127,3.127,0,0,0,0,1.678,3.431,3.431,0,0,0,.427,1.022,2.2,2.2,0,0,0,.717.686,2.318,2.318,0,0,0,.976.336v1.525a3.248,3.248,0,0,1-1.525-.427,4.057,4.057,0,0,1-1.174-1.113,4.788,4.788,0,0,1-.869-1.647Z" transform="translate(40.527 19.749)" fill="#2a7fd9"/>
      <path id="Path_399" data-name="Path 399" d="M78.25,52.567l.4-4.087L91.9,49.807l-.427,4.255a6.45,6.45,0,0,1-1.128,3.233,5.261,5.261,0,0,1-2.471,1.876,8.3,8.3,0,0,1-3.614.381,8.128,8.128,0,0,1-3.477-1.129,5.215,5.215,0,0,1-2.074-2.379,6.8,6.8,0,0,1-.457-3.477Zm1.662-2.333-.229,2.379a5.17,5.17,0,0,0,.351,2.76,3.919,3.919,0,0,0,1.647,1.8,6.847,6.847,0,0,0,2.745.808,6.619,6.619,0,0,0,2.806-.259,3.751,3.751,0,0,0,1.937-1.388,4.819,4.819,0,0,0,.93-2.486l.259-2.547Z" transform="translate(41.051 25.453)" fill="#2a7fd9"/>
      <path id="Path_400" data-name="Path 400" d="M77.086,59.054A4,4,0,0,1,78,57.529a2.9,2.9,0,0,1,1.388-.824,2.959,2.959,0,0,1,1.723.122,2.715,2.715,0,0,1,1.2.778,2.41,2.41,0,0,1,.488,1.129,4.377,4.377,0,0,1,0,1.342,10.673,10.673,0,0,1-.229,1.373c-.122.61-.229,1.083-.305,1.525a1.982,1.982,0,0,0,0,.854.518.518,0,0,0,.4.412h0a1.845,1.845,0,0,0,2.593-1.327,2.638,2.638,0,0,0-.564-2.943l.976-1.2a3.386,3.386,0,0,1,.991,1.449,4.041,4.041,0,0,1,.214,1.525,6.1,6.1,0,0,1-.32,1.525,5.809,5.809,0,0,1-.473,1.007,3.736,3.736,0,0,1-.839,1.007,2.775,2.775,0,0,1-1.327.564A3.965,3.965,0,0,1,82,65.581L75.79,63.416l.518-1.525,1.266.442v-.076a2.791,2.791,0,0,1-.488-.717,3.05,3.05,0,0,1-.275-1.129,3.66,3.66,0,0,1,.275-1.357Zm1.22.686a3.05,3.05,0,0,0-.168,1.525,2.409,2.409,0,0,0,.564,1.19,2.287,2.287,0,0,0,1.007.7l1.327.458a.915.915,0,0,1,0-.473,2.4,2.4,0,0,1,.091-.763c.091-.29.107-.549.168-.808s.107-.473.137-.641A6.1,6.1,0,0,0,81.57,59.8a1.937,1.937,0,0,0-.214-.961,1.312,1.312,0,0,0-.763-.61,1.388,1.388,0,0,0-1.342.168,2.653,2.653,0,0,0-.946,1.342Z" transform="translate(39.791 29.732)" fill="#2a7fd9"/>
      <path id="Path_401" data-name="Path 401" d="M72.973,61.809a4.577,4.577,0,0,1,.412-.564,1.784,1.784,0,0,1,.32-.305l.961,1.022a2.3,2.3,0,0,0-.7,1.22,2.2,2.2,0,0,0,.656,1.525l.534.641,10.507,1.937-.839,1.434-8.25-1.678v.091l5.444,6.42-.885,1.434L73.506,65.5a4.118,4.118,0,0,1-.732-1.251,2.608,2.608,0,0,1-.137-1.22,3.142,3.142,0,0,1,.336-1.22Z" transform="translate(38.125 31.994)" fill="#2a7fd9"/>
      <path id="Path_402" data-name="Path 402" d="M71.357,68.245a1.128,1.128,0,0,1,.793-.412,1.083,1.083,0,0,1,.854.259,1.052,1.052,0,0,1,.412.793,1.037,1.037,0,0,1-.259.854,1.1,1.1,0,0,1-.778.412,1.128,1.128,0,0,1-1.2-.747,1.144,1.144,0,0,1,0-.595,1.113,1.113,0,0,1,.183-.564Zm9.791,9.226-7.3-6.192.961-1.159L82.26,76.1Z" transform="translate(37.346 35.608)" fill="#2a7fd9"/>
      <path id="Path_403" data-name="Path 403" d="M30.489,24.88a51.271,51.271,0,1,0,70.15,74.725" transform="translate(6.904 13.062)" fill="none" stroke="#2a7fd9" stroke-linecap="round" stroke-miterlimit="10" stroke-width="0.75"/>
    </g>
  </g>
</svg>
