<svg xmlns="http://www.w3.org/2000/svg" viewBox="0 0 98.35 98.35"><defs><style>.cls-1{fill:#7eabd8;}.cls-2{fill:#f7e683;}.cls-3{fill:none;stroke:#f7e683;stroke-linecap:round;stroke-miterlimit:10;stroke-width:0.75px;}</style></defs><g id="Layer_2" data-name="Layer 2"><g id="Layer_1-2" data-name="Layer 1"><circle class="cls-1" cx="49.18" cy="49.18" r="49.18"/><path class="cls-2" d="M28.7,24.79,24,17.41l.89-.56L27,20.13l3.93-2.48-2.07-3.29.89-.56,4.66,7.38-.89.56-2.09-3.3-3.93,2.49,2.08,3.3Z"/><path class="cls-2" d="M37.72,20.16a2.72,2.72,0,0,1-1.15.14,1.9,1.9,0,0,1-1-.4A2,2,0,0,1,35,19a1.75,1.75,0,0,1-.08-.94,1.51,1.51,0,0,1,.39-.71,3.09,3.09,0,0,1,.68-.55c.26-.16.53-.3.81-.44l.88-.42a1.36,1.36,0,0,0,.47-.3.36.36,0,0,0,.06-.38v0a1.37,1.37,0,0,0-.64-.82,1.39,1.39,0,0,0-1.1,0,1.83,1.83,0,0,0-1,.65,1.9,1.9,0,0,0-.33.83l-1,0a2.2,2.2,0,0,1,.35-1.1A2.64,2.64,0,0,1,35.2,14a3.81,3.81,0,0,1,.91-.44,4,4,0,0,1,.71-.16,2.44,2.44,0,0,1,.85,0,1.73,1.73,0,0,1,.83.46A2.52,2.52,0,0,1,39.14,15l1.37,4.09-.95.32-.28-.84-.05,0a1.89,1.89,0,0,1-.18.54,1.91,1.91,0,0,1-.47.59A2.41,2.41,0,0,1,37.72,20.16Zm-.14-.9a2,2,0,0,0,.88-.55,1.62,1.62,0,0,0,.35-1.57l-.3-.88c0,.07-.09.14-.22.22a4.06,4.06,0,0,1-.43.26l-.49.25-.38.18a4.47,4.47,0,0,0-.65.39,1.35,1.35,0,0,0-.41.49.88.88,0,0,0,0,.64.9.9,0,0,0,.62.63A1.76,1.76,0,0,0,37.58,19.26Z"/><path class="cls-2" d="M46.2,11.64l-1.6,6.79-1,.13-3.21-6.2,1.08-.13,2.44,4.95H44l1.14-5.4Z"/><path class="cls-2" d="M50.44,18.51A3,3,0,0,1,48.85,18a2.68,2.68,0,0,1-1-1.26,3.92,3.92,0,0,1-.23-1.78,4.23,4.23,0,0,1,.51-1.74,3,3,0,0,1,1.13-1.12,2.76,2.76,0,0,1,1.58-.3,3.14,3.14,0,0,1,1,.25,2.59,2.59,0,0,1,.86.62,2.76,2.76,0,0,1,.57,1.06,4.23,4.23,0,0,1,.12,1.56l0,.42-5-.41.07-.86,4,.32a2.05,2.05,0,0,0-.14-1,1.63,1.63,0,0,0-.56-.73,1.76,1.76,0,0,0-.93-.33,1.81,1.81,0,0,0-1.05.21,1.91,1.91,0,0,0-.73.71,2.18,2.18,0,0,0-.32,1l-.05.58a2.68,2.68,0,0,0,.16,1.27,1.78,1.78,0,0,0,.65.84,2.08,2.08,0,0,0,1.05.35,2.4,2.4,0,0,0,.72-.05,1.53,1.53,0,0,0,.58-.3,1.49,1.49,0,0,0,.41-.54l1,.35a2.22,2.22,0,0,1-.59.83,2.57,2.57,0,0,1-.94.5A3.17,3.17,0,0,1,50.44,18.51Z"/><path class="cls-2" d="M57.75,19.8l-1-.44,6.46-6.69,1,.44-.6,9.28-1-.45.58-7.77-.06,0Zm1.76-2.95,4.08,1.81-.38.86-4.08-1.81Z"/><path class="cls-2" d="M78,23.44l-6.16,6.17-.73-.72,1.48-8.21-.07-.06-4.83,4.85-.75-.74,6.16-6.18.72.72L72.34,27.5l.06.06,4.85-4.86Z"/><path class="cls-2" d="M72.65,31,78,27.31l.57.83-5.39,3.71Zm6.58-3.91a.69.69,0,0,1-.12-.52.62.62,0,0,1,.27-.45.64.64,0,0,1,.52-.1.7.7,0,0,1,.45.3.71.71,0,0,1,.12.53.66.66,0,0,1-.79.55A.68.68,0,0,1,79.23,27.11Z"/><path class="cls-2" d="M75.18,35.58A2.8,2.8,0,0,1,74.87,34a2.74,2.74,0,0,1,.63-1.44,4.08,4.08,0,0,1,1.4-1.09A4,4,0,0,1,78.65,31a2.87,2.87,0,0,1,1.53.4,2.79,2.79,0,0,1,1.07,1.2,2.94,2.94,0,0,1,.31,1.23A2.42,2.42,0,0,1,81.32,35a2.26,2.26,0,0,1-.77.86l-.44-.9a1.66,1.66,0,0,0,.49-.81,1.53,1.53,0,0,0-.16-1.1,1.79,1.79,0,0,0-.72-.79A2.09,2.09,0,0,0,78.65,32a3.63,3.63,0,0,0-2.35,1.15,2,2,0,0,0-.49,1A1.7,1.7,0,0,0,76,35.18a1.72,1.72,0,0,0,.43.58,1.4,1.4,0,0,0,.59.31,1.46,1.46,0,0,0,.69,0l.44.9a2.24,2.24,0,0,1-1.12.08,2.28,2.28,0,0,1-1-.47A2.87,2.87,0,0,1,75.18,35.58Z"/><path class="cls-2" d="M77.31,41.54a3.12,3.12,0,0,1,0-1.69,2.75,2.75,0,0,1,.89-1.3,3.9,3.9,0,0,1,1.62-.79,4.16,4.16,0,0,1,1.81-.08,2.91,2.91,0,0,1,1.41.71,2.76,2.76,0,0,1,.8,1.4,3.16,3.16,0,0,1,.08,1,2.47,2.47,0,0,1-.31,1,2.72,2.72,0,0,1-.82.88,4.17,4.17,0,0,1-1.44.61l-.41.11-1.23-4.89.84-.22,1,3.9a2.22,2.22,0,0,0,.91-.45A1.66,1.66,0,0,0,83,41a1.71,1.71,0,0,0,0-1,1.74,1.74,0,0,0-.54-.94,2,2,0,0,0-.91-.46,2.29,2.29,0,0,0-1,0l-.56.14a2.75,2.75,0,0,0-1.15.56,1.73,1.73,0,0,0-.58.89,2.05,2.05,0,0,0,0,1.1,2.25,2.25,0,0,0,.28.67,1.44,1.44,0,0,0,.47.45,1.52,1.52,0,0,0,.64.22l0,1a2.13,2.13,0,0,1-1-.28,2.66,2.66,0,0,1-.77-.73A3.14,3.14,0,0,1,77.31,41.54Z"/><path class="cls-2" d="M78.23,51.16l.26-2.68,8.69.87-.28,2.79a4.23,4.23,0,0,1-.74,2.12,3.45,3.45,0,0,1-1.62,1.23,5.44,5.44,0,0,1-2.37.25A5.33,5.33,0,0,1,79.89,55a3.42,3.42,0,0,1-1.36-1.56A4.46,4.46,0,0,1,78.23,51.16Zm1.09-1.53-.15,1.56A3.39,3.39,0,0,0,79.4,53a2.57,2.57,0,0,0,1.08,1.18,4.49,4.49,0,0,0,1.8.53,4.34,4.34,0,0,0,1.84-.17,2.46,2.46,0,0,0,1.27-.91A3.16,3.16,0,0,0,86,52l.17-1.67Z"/><path class="cls-2" d="M76.64,58.22a2.62,2.62,0,0,1,.6-1,1.9,1.9,0,0,1,.91-.54,1.94,1.94,0,0,1,1.13.08,1.78,1.78,0,0,1,.79.51,1.58,1.58,0,0,1,.32.74,2.87,2.87,0,0,1,0,.88,7,7,0,0,1-.15.9c-.08.4-.15.71-.2,1a1.3,1.3,0,0,0,0,.56.34.34,0,0,0,.26.27l0,0A1.21,1.21,0,0,0,82,60.75a1.73,1.73,0,0,0-.37-1.93l.64-.79a2.22,2.22,0,0,1,.65.95,2.65,2.65,0,0,1,.14,1,4,4,0,0,1-.21,1,3.81,3.81,0,0,1-.31.66,2.45,2.45,0,0,1-.55.66,1.82,1.82,0,0,1-.87.37,2.6,2.6,0,0,1-1.26-.17l-4.07-1.42.34-1,.83.29,0-.05a1.83,1.83,0,0,1-.32-.47,2,2,0,0,1-.18-.74A2.4,2.4,0,0,1,76.64,58.22Zm.8.45a2,2,0,0,0-.11,1,1.58,1.58,0,0,0,.37.78,1.5,1.5,0,0,0,.66.46l.87.3a.6.6,0,0,1,0-.31c0-.14,0-.31.06-.5s.07-.36.11-.53.07-.31.09-.42a4,4,0,0,0,.09-.74,1.27,1.27,0,0,0-.14-.63.86.86,0,0,0-.5-.4.91.91,0,0,0-.88.11A1.74,1.74,0,0,0,77.44,58.67Z"/><path class="cls-2" d="M72.85,61.51a3,3,0,0,1,.27-.37,1.17,1.17,0,0,1,.21-.2l.63.67a1.51,1.51,0,0,0-.46.8,1.44,1.44,0,0,0,.43,1l.35.42,6.89,1.27-.55.94-5.41-1.1,0,.06,3.57,4.21-.58.94-5-6.22a2.7,2.7,0,0,1-.48-.82,1.71,1.71,0,0,1-.09-.8A2.06,2.06,0,0,1,72.85,61.51Z"/><path class="cls-2" d="M71.28,68.1a.74.74,0,0,1,.52-.27.71.71,0,0,1,.56.17.69.69,0,0,1,.27.52.68.68,0,0,1-.17.56.72.72,0,0,1-.51.27.74.74,0,0,1-.79-.49.75.75,0,0,1,0-.39A.73.73,0,0,1,71.28,68.1Zm6.42,6.05-4.79-4.06.63-.76,4.89,3.92Z"/><path class="cls-3" d="M24.52,24.88a33.62,33.62,0,1,0,46,49"/></g></g></svg>