<svg xmlns="http://www.w3.org/2000/svg" viewBox="0 0 117.62 81.46"><defs><style>.cls-1{fill:#f7e683;}.cls-2{fill:#ae7838;}.cls-3{fill:none;stroke:#ae7838;stroke-miterlimit:10;stroke-width:0.5px;}</style></defs><g id="Layer_2" data-name="Layer 2"><g id="Layer_1-2" data-name="Layer 1"><ellipse class="cls-1" cx="58.81" cy="40.73" rx="58.81" ry="40.73"/><path class="cls-2" d="M9.33,47.9,10,39.08l1.83-.16-.28,3.64,3.74-.33.28-3.64,1.83-.16-.68,8.82-1.84.16.28-3.64-3.73.33-.28,3.64Z"/><path class="cls-2" d="M20.07,47.09A2.52,2.52,0,0,1,19,47a1.37,1.37,0,0,1-.72-.59,1.78,1.78,0,0,1-.2-1.07,2.21,2.21,0,0,1,.27-.94,2.17,2.17,0,0,1,.59-.65,3.08,3.08,0,0,1,.81-.41,5.79,5.79,0,0,1,.93-.25l.93-.19a1.63,1.63,0,0,0,.52-.21.43.43,0,0,0,.18-.33v0a.71.71,0,0,0-.2-.61.89.89,0,0,0-.69-.16,1.53,1.53,0,0,0-.8.28,1.32,1.32,0,0,0-.43.58H18.51a2.7,2.7,0,0,1,.58-1.08,2.93,2.93,0,0,1,1-.77,4.23,4.23,0,0,1,1.4-.36,3.81,3.81,0,0,1,1,0,2.33,2.33,0,0,1,.86.32,1.51,1.51,0,0,1,.56.64,1.94,1.94,0,0,1,.15,1l-.35,4.46L22,46.79l.07-.92h-.05a2.56,2.56,0,0,1-.46.58,2.38,2.38,0,0,1-.67.42A2.78,2.78,0,0,1,20.07,47.09Zm.62-1.32a1.56,1.56,0,0,0,.71-.22,1.42,1.42,0,0,0,.52-.48,1.29,1.29,0,0,0,.22-.64l.05-.7a1.06,1.06,0,0,1-.24.12l-.33.11-.37.09-.33.09a2.39,2.39,0,0,0-.57.2,1.05,1.05,0,0,0-.4.31.81.81,0,0,0-.16.44.57.57,0,0,0,.23.55A1,1,0,0,0,20.69,45.77Z"/><path class="cls-2" d="M31.51,39.39l-2.79,6.82-2,.17L24.92,40l1.84-.16,1,4.61h.07l1.71-4.85Z"/><path class="cls-2" d="M34.67,45.81a3.14,3.14,0,0,1-1.7-.26,2.23,2.23,0,0,1-1-1.08,3.67,3.67,0,0,1-.25-1.78,4.54,4.54,0,0,1,.53-1.83,3.63,3.63,0,0,1,1.2-1.29,3.49,3.49,0,0,1,1.7-.58,3.29,3.29,0,0,1,1.19.1,2.1,2.1,0,0,1,.92.55,2.2,2.2,0,0,1,.57,1,3.68,3.68,0,0,1,.12,1.45l0,.5-5.51.49.08-1.14,3.8-.33a1.18,1.18,0,0,0-.11-.69.9.9,0,0,0-.42-.44,1.21,1.21,0,0,0-.67-.12,1.6,1.6,0,0,0-.74.26,1.81,1.81,0,0,0-.53.57,1.68,1.68,0,0,0-.25.71L33.45,43a1.77,1.77,0,0,0,.11.84,1,1,0,0,0,.47.48,1.58,1.58,0,0,0,.78.1,2,2,0,0,0,.56-.13,1.37,1.37,0,0,0,.45-.3,1.31,1.31,0,0,0,.3-.45l1.66,0a2.85,2.85,0,0,1-.6,1.11,3.41,3.41,0,0,1-1.06.8A4.13,4.13,0,0,1,34.67,45.81Z"/><path class="cls-2" d="M43.16,44.94l-2,.17L44.88,36l2.37-.21,2.31,8.56-2,.17L46,37.94h-.07Zm.15-3.45L48,41.08l-.11,1.45-4.66.41Z"/><path class="cls-2" d="M61.33,34.59l-.68,8.82-1.59.14-3.35-5.22h-.06l-.44,5.55-1.83.16.68-8.82,1.61-.14L59,40.3h.08l.42-5.55Z"/><path class="cls-2" d="M62.13,43.28l.52-6.61,1.8-.16-.51,6.61Zm1.54-7.56a.88.88,0,0,1-.69-.21.74.74,0,0,1-.27-.62A1,1,0,0,1,63,34.2a1.15,1.15,0,0,1,.69-.33.92.92,0,0,1,.69.21.8.8,0,0,1,.27.63,1,1,0,0,1-.31.68A1,1,0,0,1,63.67,35.72Z"/><path class="cls-2" d="M68.32,42.87a3,3,0,0,1-1.69-.28,2.33,2.33,0,0,1-1-1.11,3.68,3.68,0,0,1-.24-1.74,4.29,4.29,0,0,1,.52-1.82,3.66,3.66,0,0,1,1.2-1.3A3.75,3.75,0,0,1,68.85,36a3.08,3.08,0,0,1,1.46.18,2,2,0,0,1,1,.8,2.32,2.32,0,0,1,.3,1.3l-1.7.15a1.18,1.18,0,0,0-.32-.77,1,1,0,0,0-.78-.23,1.36,1.36,0,0,0-.75.29,1.89,1.89,0,0,0-.54.71,3.17,3.17,0,0,0-.26,1.08,2.87,2.87,0,0,0,.09,1.06,1.17,1.17,0,0,0,.44.64,1.09,1.09,0,0,0,.71.17,1.36,1.36,0,0,0,.57-.18,1.26,1.26,0,0,0,.44-.42,1.7,1.7,0,0,0,.27-.61l1.7-.15a3.07,3.07,0,0,1-.51,1.37,3.15,3.15,0,0,1-1.07,1A3.57,3.57,0,0,1,68.32,42.87Z"/><path class="cls-2" d="M75.37,42.25a3.14,3.14,0,0,1-1.7-.26,2.23,2.23,0,0,1-1-1.08,3.67,3.67,0,0,1-.25-1.78,4.39,4.39,0,0,1,.53-1.83A3.81,3.81,0,0,1,74.12,36a3.66,3.66,0,0,1,1.71-.57,3.1,3.1,0,0,1,1.19.1,2.18,2.18,0,0,1,.92.54,2.29,2.29,0,0,1,.57,1,4.1,4.1,0,0,1,.12,1.45l0,.5-5.5.48.08-1.13L77,38a1.26,1.26,0,0,0-.11-.69.9.9,0,0,0-.42-.44,1.24,1.24,0,0,0-.68-.12,1.57,1.57,0,0,0-.73.26,1.74,1.74,0,0,0-.78,1.27l-.1,1.14a1.67,1.67,0,0,0,.11.84,1,1,0,0,0,.46.48,1.6,1.6,0,0,0,.79.1,2.08,2.08,0,0,0,.56-.13,1.23,1.23,0,0,0,.44-.3,1.34,1.34,0,0,0,.31-.45l1.66,0a2.93,2.93,0,0,1-.6,1.11,3.34,3.34,0,0,1-1.07.8A4.23,4.23,0,0,1,75.37,42.25Z"/><path class="cls-2" d="M85.49,41.24l-3.13.27L83,32.69l3.07-.27a4.15,4.15,0,0,1,2.23.35,2.89,2.89,0,0,1,1.36,1.42A4.82,4.82,0,0,1,90,36.55a5.56,5.56,0,0,1-.68,2.37,4.38,4.38,0,0,1-1.56,1.61A5.37,5.37,0,0,1,85.49,41.24Zm-1.16-1.49,1.13-.1a3.16,3.16,0,0,0,1.41-.43,2.52,2.52,0,0,0,.93-1,4.41,4.41,0,0,0,.41-1.68A3.39,3.39,0,0,0,88.07,35a1.36,1.36,0,0,0-.76-.8A2.75,2.75,0,0,0,86,34l-1.21.11Z"/><path class="cls-2" d="M92.87,40.72a2.54,2.54,0,0,1-1.09-.13,1.45,1.45,0,0,1-.72-.59,1.86,1.86,0,0,1-.2-1.07,2.26,2.26,0,0,1,.28-.94,2,2,0,0,1,.59-.65,3.08,3.08,0,0,1,.81-.41,5.52,5.52,0,0,1,.93-.25l.92-.19a1.54,1.54,0,0,0,.52-.21A.41.41,0,0,0,95.1,36v0a.74.74,0,0,0-.2-.61.92.92,0,0,0-.69-.16,1.5,1.5,0,0,0-.8.28A1.22,1.22,0,0,0,93,36H91.31a2.82,2.82,0,0,1,.58-1.08,3.13,3.13,0,0,1,1-.77,4.3,4.3,0,0,1,1.4-.36,3.9,3.9,0,0,1,1,0,2.28,2.28,0,0,1,.85.32,1.53,1.53,0,0,1,.57.64,2,2,0,0,1,.14,1l-.35,4.46-1.71.15.07-.92h0a2.31,2.31,0,0,1-.46.58,2.48,2.48,0,0,1-.66.42A2.78,2.78,0,0,1,92.87,40.72Zm.62-1.32a1.6,1.6,0,0,0,.72-.22,1.47,1.47,0,0,0,.51-.48,1.29,1.29,0,0,0,.22-.64l0-.7a1,1,0,0,1-.23.12l-.34.11-.36.09-.33.09a2.32,2.32,0,0,0-.58.2,1,1,0,0,0-.39.31.82.82,0,0,0-.17.44.59.59,0,0,0,.23.55A1,1,0,0,0,93.49,39.4Z"/><path class="cls-2" d="M98.65,42.54a3.41,3.41,0,0,1-.64,0,2.54,2.54,0,0,1-.49-.09L98,41a1.51,1.51,0,0,0,.79,0,1,1,0,0,0,.56-.57l.13-.29-1.8-6.59,1.83-.16,1,4.75h.06l1.74-5,2-.17-3.09,7.55a3.7,3.7,0,0,1-.57,1,2.52,2.52,0,0,1-.84.68A3.09,3.09,0,0,1,98.65,42.54Z"/><path class="cls-2" d="M106,39.55a.93.93,0,0,1-1-.94,1,1,0,0,1,.29-.73,1,1,0,0,1,.72-.36.89.89,0,0,1,.71.23.86.86,0,0,1,.31.69,1,1,0,0,1-.14.52,1.19,1.19,0,0,1-.36.41A1,1,0,0,1,106,39.55Zm1.52-9-.64,6.19-1.54.13.3-6.16Z"/><ellipse class="cls-3" cx="58.81" cy="40.73" rx="54.84" ry="37.23"/></g></g></svg>