<svg xmlns="http://www.w3.org/2000/svg" viewBox="0 0 98.35 98.35"><defs><style>.cls-1{fill:#77a1c3;}.cls-2{fill:#f6f6f6;}.cls-3{fill:#fff;}.cls-4{fill:none;stroke:#fff;stroke-miterlimit:10;stroke-width:0.75px;}</style></defs><g id="Layer_2" data-name="Layer 2"><g id="Layer_1-2" data-name="Layer 1"><circle class="cls-1" cx="49.18" cy="49.18" r="49.18"/><ellipse class="cls-2" cx="34.58" cy="35.72" rx="4.36" ry="9.51"/><path class="cls-3" d="M23.29,57.38a3.71,3.71,0,0,1-2.59,2.69,3.87,3.87,0,0,1-2,.06,3.19,3.19,0,0,1-1.66-.92,7.07,7.07,0,0,0,3.35-.1A7.64,7.64,0,0,0,23.29,57.38Z"/><path class="cls-3" d="M76,57.38a7.59,7.59,0,0,0,2.88,1.73,7,7,0,0,0,3.34.1,3.15,3.15,0,0,1-1.66.92,3.87,3.87,0,0,1-2-.06A3.74,3.74,0,0,1,76,57.38Z"/><circle class="cls-4" cx="49.18" cy="49.18" r="42.58"/><path class="cls-4" d="M20.48,59.61a30.47,30.47,0,0,0,58.32,0"/><ellipse class="cls-2" cx="64.22" cy="35.72" rx="4.36" ry="9.51"/></g></g></svg>