<svg xmlns="http://www.w3.org/2000/svg" viewBox="0 0 75.63 73.04"><defs><style>.cls-1{fill:#f49b75;}.cls-2{fill:none;stroke:#f49b75;stroke-miterlimit:10;}</style></defs><g id="Layer_2" data-name="Layer 2"><g id="Layer_1-2" data-name="Layer 1"><path class="cls-1" d="M61.9,45.58l1.7,6.71a7.33,7.33,0,0,0,5.32,5.32l6.71,1.7L68.92,61a7.34,7.34,0,0,0-5.32,5.32L61.9,73l-1.7-6.71A7.36,7.36,0,0,0,54.88,61l-6.71-1.7,6.71-1.7a7.34,7.34,0,0,0,5.32-5.32Z"/><path class="cls-2" d="M31.13,2l3.6,14.21A15.57,15.57,0,0,0,46,27.53l14.22,3.6L46,34.73A15.59,15.59,0,0,0,34.73,46l-3.6,14.22L27.53,46A15.57,15.57,0,0,0,16.25,34.73L2,31.13l14.21-3.6A15.55,15.55,0,0,0,27.53,16.25Z"/></g></g></svg>