<svg xmlns="http://www.w3.org/2000/svg" viewBox="0 0 98.35 98.35"><defs><style>.cls-1{fill:#54b899;}.cls-2{fill:#967436;}.cls-3{fill:#ecd7b8;}.cls-4{fill:#fff;}</style></defs><g id="Layer_2" data-name="Layer 2"><g id="Layer_1-2" data-name="Layer 1"><circle class="cls-1" cx="49.18" cy="49.18" r="49.18"/><path class="cls-2" d="M33.6,10.2,33.2,9l5.28-1.72.4,1.23L37,9.1l1.64,5-1.49.48-1.64-5Z"/><path class="cls-2" d="M41,13.39l-.95-6.51,1.58-.22L42,9.27l2.57-.38L44.2,6.28l1.57-.23.94,6.51-1.57.23-.38-2.62-2.56.38.38,2.61Z"/><path class="cls-2" d="M48.85,12.56l-1.71-.06L49.58,6l2.11.07,2,6.64L52,12.66l-1.38-5h-.05ZM48.71,10l3.56.12,0,1.2-3.56-.12Z"/><path class="cls-2" d="M61,7.55,59.59,14l-1.32-.28L56.51,9.44h0l-.79,3.71-1.56-.34L55.5,6.39l1.33.28,1.74,4.25h0l.8-3.71Z"/><path class="cls-2" d="M60.29,14.21,62.73,8.1l1.48.59-1,2.58.08,0,3.05-1.78,1.73.7-3.25,1.86.85,4.26-1.77-.71-.55-3-.89.51-.66,1.66Z"/><path class="cls-2" d="M71,11.82l1.46,1-.41,3.06,0,0,2.71-1.47,1.46,1-4.47,2.24-1.24,1.81-1.3-.9,1.24-1.8Z"/><path class="cls-2" d="M79.28,22.84a3.71,3.71,0,0,1-1.59,1,2.73,2.73,0,0,1-1.6,0,3.38,3.38,0,0,1-2.28-2.23,2.81,2.81,0,0,1,0-1.6,4.26,4.26,0,0,1,2.57-2.63,2.73,2.73,0,0,1,1.6,0,3.18,3.18,0,0,1,1.42.83,3.33,3.33,0,0,1,.87,1.39,2.84,2.84,0,0,1,0,1.61A3.75,3.75,0,0,1,79.28,22.84ZM78.11,21.7a2.74,2.74,0,0,0,.63-.9,1.48,1.48,0,0,0-1.06-2,1.44,1.44,0,0,0-.85.12,3.4,3.4,0,0,0-1.51,1.55,1.34,1.34,0,0,0,.32,1.57,1.35,1.35,0,0,0,1.59.29A2.62,2.62,0,0,0,78.11,21.7Z"/><path class="cls-2" d="M85,25.11,86,26.4,82.5,28.86a2.29,2.29,0,0,1-1.25.46A2.26,2.26,0,0,1,80,29a3.43,3.43,0,0,1-1.09-1,3.39,3.39,0,0,1-.6-1.36,2.13,2.13,0,0,1,.12-1.28,2.35,2.35,0,0,1,.84-1l3.45-2.46.92,1.3L80.3,25.55a1.31,1.31,0,0,0-.41.47,1.06,1.06,0,0,0-.09.58,1.19,1.19,0,0,0,.24.6,1.18,1.18,0,0,0,.48.42,1.09,1.09,0,0,0,.59.1,1.24,1.24,0,0,0,.58-.23Z"/><path class="cls-2" d="M88.37,34.17l1.24-.38,1.63,5.3L90,39.48l-.59-1.91-5,1.56-.47-1.5,5-1.56Z"/><path class="cls-2" d="M85.08,41.54l6.52-.84.21,1.57-2.62.34.33,2.57,2.62-.34.21,1.57-6.52.85-.21-1.57,2.62-.34-.33-2.57-2.62.34Z"/><path class="cls-2" d="M85.8,49.41l.08-1.71,6.46,2.53-.1,2.12-6.68,1.89.08-1.7,5-1.31v0Zm2.59-.11-.17,3.57L87,52.81l.18-3.56Z"/><path class="cls-2" d="M90.62,61.58l-6.4-1.47.3-1.31,4.28-1.71v0l-3.7-.84.36-1.55,6.4,1.47-.3,1.33L87.3,59.13v.06L91,60Z"/><path class="cls-2" d="M84,60.82,90,63.36l-.61,1.46-2.57-1.07,0,.08,1.72,3.08-.72,1.73L86,65.35l-4.27.79.73-1.76,3-.51L85,63l-1.65-.69Z"/><path class="cls-2" d="M86.22,71.56l-1,1.45-3-.46,0,0,1.44,2.72-1,1.45-2.17-4.5L78.56,71l.91-1.29L81.26,71Z"/><path class="cls-2" d="M75.09,79.65a3.71,3.71,0,0,1-1-1.6,2.94,2.94,0,0,1,0-1.61,3.34,3.34,0,0,1,.86-1.4,3.25,3.25,0,0,1,1.41-.85,2.9,2.9,0,0,1,1.6,0,4.31,4.31,0,0,1,2.6,2.61,2.9,2.9,0,0,1,0,1.6,3.44,3.44,0,0,1-2.26,2.25,2.85,2.85,0,0,1-1.61,0A3.78,3.78,0,0,1,75.09,79.65Zm1.15-1.15a2.71,2.71,0,0,0,.89.64,1.39,1.39,0,0,0,.84.11,1.45,1.45,0,0,0,.74-.41A1.37,1.37,0,0,0,79,77.26a2.84,2.84,0,0,0-.64-.9,3,3,0,0,0-.89-.64,1.39,1.39,0,0,0-.84-.1,1.41,1.41,0,0,0-.74.41,1.33,1.33,0,0,0-.31,1.58A2.71,2.71,0,0,0,76.24,78.5Z"/><path class="cls-2" d="M72.7,85.38l-1.3.91L69,82.8a2.23,2.23,0,0,1-.11-2.5,3.33,3.33,0,0,1,1-1.07,3.44,3.44,0,0,1,1.38-.59,2.27,2.27,0,0,1,1.27.14,2.32,2.32,0,0,1,1,.86L76,83.12,74.67,84l-2.33-3.38a1.31,1.31,0,0,0-.47-.41,1.06,1.06,0,0,0-.58-.11,1.27,1.27,0,0,0-.6.23,1.29,1.29,0,0,0-.43.48,1.08,1.08,0,0,0-.11.58,1.22,1.22,0,0,0,.22.59Z"/><path class="cls-2" d="M63.61,88.59,64,89.83l-5.34,1.56-.36-1.24,1.91-.56-1.48-5.07,1.51-.44,1.48,5.07Z"/><path class="cls-2" d="M56.3,85.19l.76,6.53-1.58.18-.31-2.62-2.57.3.3,2.62-1.57.18-.76-6.53,1.58-.18.3,2.62L55,88l-.3-2.62Z"/><path class="cls-2" d="M48.42,85.79l1.71.11L47.5,92.32l-2.11-.13-1.8-6.7,1.7.1,1.24,5h0Zm.07,2.59-3.56-.22L45,87l3.56.22Z"/><path class="cls-2" d="M36.17,90.43l1.56-6.38,1.31.32,1.64,4.31h0l.9-3.69,1.54.38L41.6,91.77l-1.33-.33-1.61-4.29,0,0-.9,3.68Z"/><path class="cls-2" d="M37,83.8l-2.62,6L33,89.19l1.11-2.54-.08,0-3.1,1.68-1.72-.75,3.31-1.75-.72-4.29,1.74.76.47,3,.9-.48.71-1.63Z"/><path class="cls-2" d="M26.24,85.88l-1.43-1,.5-3,0,0-2.75,1.39L21.09,82.1,25.62,80l1.3-1.77,1.27.94-1.3,1.77Z"/><path class="cls-2" d="M18.32,74.63a3.71,3.71,0,0,1,1.61-1,2.84,2.84,0,0,1,1.61,0A3.48,3.48,0,0,1,23.76,76a2.91,2.91,0,0,1-.05,1.6,3.75,3.75,0,0,1-1,1.58,3.81,3.81,0,0,1-1.61,1,2.84,2.84,0,0,1-1.61,0,3.39,3.39,0,0,1-2.21-2.29,2.85,2.85,0,0,1,0-1.61A3.72,3.72,0,0,1,18.32,74.63Zm1.13,1.16a2.65,2.65,0,0,0-.65.89,1.49,1.49,0,0,0-.13.84,1.45,1.45,0,0,0,.41.74,1.4,1.4,0,0,0,.72.43,1.59,1.59,0,0,0,.85-.09,2.74,2.74,0,0,0,.9-.63,2.93,2.93,0,0,0,.66-.88,1.42,1.42,0,0,0,.12-.84,1.46,1.46,0,0,0-.4-.75,1.4,1.4,0,0,0-.73-.42,1.38,1.38,0,0,0-.84.09A3,3,0,0,0,19.45,75.79Z"/><path class="cls-2" d="M12.62,72.16l-.88-1.32,3.52-2.36a2.25,2.25,0,0,1,2.5-.08,3.28,3.28,0,0,1,1,1,3.25,3.25,0,0,1,.57,1.38,2.22,2.22,0,0,1-.16,1.28,2.36,2.36,0,0,1-.87,1l-3.52,2.35L14,74.14l3.41-2.28a1.41,1.41,0,0,0,.42-.46,1.06,1.06,0,0,0,.11-.58,1.26,1.26,0,0,0-.22-.6,1.23,1.23,0,0,0-.47-.44,1.19,1.19,0,0,0-.58-.12,1.22,1.22,0,0,0-.59.22Z"/><path class="cls-2" d="M10.31,65l-1.22.4L7.34,60.16l1.22-.41.63,1.9,5-1.67.5,1.49-5,1.66Z"/><path class="cls-2" d="M13.45,57.6l-6.5,1L6.71,57l2.61-.4-.39-2.56-2.61.4-.24-1.57,6.5-1,.24,1.57-2.61.4.39,2.56,2.61-.4Z"/><path class="cls-2" d="M12.56,49.74l0,1.71L6,49.05l.06-2.11,6.63-2,0,1.71L7.69,48v0ZM10,49.9l.1-3.57,1.2,0-.09,3.57Z"/><path class="cls-2" d="M7.47,37.68,13.91,39l-.27,1.32L9.39,42.12v0l3.71.77-.32,1.56L6.34,43.16l.28-1.34,4.23-1.77v0l-3.71-.77Z"/><path class="cls-2" d="M14.13,38.3,8,35.9l.58-1.48,2.59,1,0-.08-1.79-3,.68-1.74L12,33.82l4.26-.88-.7,1.77-3,.58.51.88,1.66.65Z"/><path class="cls-2" d="M11.67,27.57l1-1.46,3.05.39,0,0-1.5-2.7,1-1.47,2.27,4.45L19.35,28l-.89,1.3-1.82-1.23Z"/><path class="cls-2" d="M22.64,19.26a3.72,3.72,0,0,1,1,1.57,2.85,2.85,0,0,1,0,1.61,3.21,3.21,0,0,1-.82,1.42,3.17,3.17,0,0,1-1.39.87,2.84,2.84,0,0,1-1.61,0,4.28,4.28,0,0,1-2.64-2.55,2.85,2.85,0,0,1-.05-1.61A3.29,3.29,0,0,1,18,19.17a3.23,3.23,0,0,1,1.38-.87,2.84,2.84,0,0,1,1.61,0A3.68,3.68,0,0,1,22.64,19.26Zm-1.13,1.17a2.88,2.88,0,0,0-.91-.63,1.55,1.55,0,0,0-.84-.09,1.57,1.57,0,0,0-1.13,1.17,1.4,1.4,0,0,0,.12.84,2.84,2.84,0,0,0,.66.89,3.1,3.1,0,0,0,.9.62,1.36,1.36,0,0,0,1.58-.34,1.39,1.39,0,0,0,.4-.74,1.49,1.49,0,0,0-.13-.84A2.62,2.62,0,0,0,21.51,20.43Z"/><path class="cls-2" d="M24.89,13.47l1.29-.93L28.66,16a2.35,2.35,0,0,1,.47,1.24,2.39,2.39,0,0,1-.3,1.26,3.43,3.43,0,0,1-1,1.09,3.36,3.36,0,0,1-1.36.61,2.22,2.22,0,0,1-1.28-.11,2.32,2.32,0,0,1-1-.83L21.67,15.8,23,14.87l2.4,3.33a1.23,1.23,0,0,0,.48.4,1,1,0,0,0,.58.09,1.23,1.23,0,0,0,.6-.24,1.19,1.19,0,0,0,.41-.49,1.07,1.07,0,0,0,.1-.58,1.17,1.17,0,0,0-.23-.58Z"/><path class="cls-3" d="M39.7,21.93l4.66-1.2.34,1.32-3,.78L42,24.2l2.81-.72.33,1.31-2.8.73.35,1.37,3-.78.33,1.31-4.66,1.2Z"/><path class="cls-3" d="M52.61,27.42l-1.42,0-2.65-4.05h0l-.09,4-1.67,0,.16-6.9,1.44,0,2.62,4H51l.09-4,1.67,0Z"/><path class="cls-3" d="M59.42,22.22,58.08,26.8a2.24,2.24,0,0,1-3,1.44,2,2,0,0,1-1.62-2.71L55,26a.74.74,0,0,0,.49,1c.46.13.8-.1,1-.67l1.34-4.58Z"/><path class="cls-3" d="M60.8,30.8A3.22,3.22,0,0,1,59.91,26a3.31,3.31,0,1,1,5.58,3.52A3.23,3.23,0,0,1,60.8,30.8Zm3-4.77c-.84-.53-1.74-.23-2.46.91s-.61,2.09.23,2.62,1.74.23,2.46-.92S64.65,26.56,63.81,26Z"/><path class="cls-3" d="M69.91,29.21l-1.23,3,0,0,3.14-.8,1.23,1.41L68,34l-1.74,1.51-1.09-1.25,1.74-1.51,1.82-4.93Z"/><path class="cls-3" d="M76.28,39.32,77.55,44l-1.31.36-.83-3-1.36.37.76,2.79-1.31.36L72.74,42l-1.37.37.83,3-1.31.36-1.26-4.64Z"/><path class="cls-3" d="M71,52.26l0-1.42,4-2.67v-.05l-4-.07,0-1.67,6.9.12,0,1.44-4,2.65v.06l4,.07,0,1.66Z"/><path class="cls-3" d="M76.28,59.05l-4.61-1.28a2.25,2.25,0,0,1-1.48-3,2.06,2.06,0,0,1,2.69-1.66l-.44,1.6a.74.74,0,0,0-1,.51c-.12.46.11.79.68,1l4.61,1.27Z"/><path class="cls-3" d="M67.71,60.53A3.56,3.56,0,1,1,69,65.19,3.22,3.22,0,0,1,67.71,60.53Zm4.79,2.95c.52-.84.22-1.74-.93-2.45s-2.09-.58-2.61.26-.22,1.74.93,2.45S72,64.33,72.5,63.48Z"/><path class="cls-3" d="M69.44,69.61l-3-1.19,0,0,.83,3.13-1.39,1.24-1.18-5.11L63.11,66l1.24-1.1,1.53,1.72,5,1.76Z"/><path class="cls-3" d="M59.44,76.12l-4.62,1.33-.37-1.3,3-.87-.39-1.35-2.78.8-.37-1.31,2.78-.8-.39-1.36-3,.87-.38-1.3,4.62-1.33Z"/><path class="cls-3" d="M46.41,71.07l1.42,0L50.65,75h0l-.07-4,1.67,0,.13,6.91L51,77.9,48.19,74h-.06l.07,4-1.66,0Z"/><path class="cls-3" d="M39.71,76.42l1.21-4.62a2.26,2.26,0,0,1,3-1.53,2.06,2.06,0,0,1,1.71,2.67L44,72.52a.74.74,0,0,0-.52-1c-.46-.12-.8.12-.95.69l-1.21,4.63Z"/><path class="cls-3" d="M38.1,67.88A3.56,3.56,0,0,1,34.48,74a3.56,3.56,0,0,1,3.62-6.1Zm-2.88,4.85c.86.5,1.75.18,2.44-1s.55-2.1-.3-2.61-1.75-.18-2.44,1S34.37,72.21,35.22,72.73Z"/><path class="cls-3" d="M29.07,69.76l1.13-3,0,0-3.11.89-1.27-1.37,5.09-1.27,1.69-1.56,1.13,1.21L32,66.16l-1.66,5Z"/><path class="cls-3" d="M22.35,59.81,21,55.19l1.3-.39.92,3,1.35-.41-.84-2.78,1.31-.4L25.83,57l1.36-.42-.91-3,1.3-.4L29,57.81Z"/><path class="cls-3" d="M27.28,46.73l0,1.42L23.39,51v0l4-.09,0,1.67-6.9.16,0-1.44,3.92-2.81v-.06l-4,.09,0-1.66Z"/><path class="cls-3" d="M21.8,40.09l4.64,1.14a2.26,2.26,0,0,1,1.57,3,2.06,2.06,0,0,1-2.64,1.74l.4-1.61a.73.73,0,0,0,1-.54c.12-.47-.12-.8-.7-.94L21.4,41.69Z"/><path class="cls-3" d="M30.3,38.38a3.22,3.22,0,0,1-4.72,1.1,3.31,3.31,0,1,1,3.28-5.73A3.22,3.22,0,0,1,30.3,38.38Zm-4.89-2.8c-.49.86-.16,1.75,1,2.42s2.11.52,2.6-.35.16-1.74-1-2.42S25.91,34.71,25.41,35.58Z"/><path class="cls-3" d="M28.3,29.38l3.05,1.09,0,0-.93-3.1,1.35-1.28,1.34,5.06,1.58,1.67-1.2,1.15L32,32.26l-5-1.6Z"/><path class="cls-4" d="M47.25,34.48l2.46-.1,0,.57-.88,0,.1,2.34-.69,0L48.16,35l-.88,0Z"/><path class="cls-4" d="M50.57,34.4l.7.13-.22,1.16,1.13.21.22-1.16.69.13-.53,2.87-.69-.12.21-1.16L51,36.25l-.22,1.16L50,37.28Z"/><path class="cls-4" d="M52.72,37.76l2.08-2.25.86.38-.29,3-.69-.3.07-.64-.92-.41-.42.48Zm2.1-.32.12-1.07h0l-.71.81Z"/><path class="cls-4" d="M57.44,40.58,57,40.21l.12-2,0,0-1,1.32-.56-.43,1.79-2.28.47.37-.13,2h0l1-1.31.55.43Z"/><path class="cls-4" d="M59.9,39l.45.54-1,.78,0,0,1.56,0,.53.64-1.66,0-.58,1.84-.54-.65.43-1.29h-.45l-.61.5-.45-.55Z"/><path class="cls-4" d="M62.64,43.08l-.89,1v0l1.36.11.29.73-2.19-.26-.9.37-.26-.65.9-.36,1.39-1.72Z"/><path class="cls-4" d="M60.87,47.41a1.5,1.5,0,1,1,1.69,1.15A1.37,1.37,0,0,1,60.87,47.41Zm2.34-.36c-.06-.41-.4-.61-1-.53s-.83.38-.77.8.41.62,1,.53S63.28,47.47,63.21,47.05Z"/><path class="cls-4" d="M63.79,51.74l-1.87-.16a1.25,1.25,0,0,1,.21-2.46l1.88.16-.07.71-1.81-.16a.49.49,0,0,0-.56.48.51.51,0,0,0,.47.58l1.81.15Z"/><path class="cls-4" d="M63,54.53l-1.08,2.21-.51-.25.38-.79-2.11-1L60,54l2.11,1,.39-.8Z"/><path class="cls-4" d="M61.45,57.49,61,58l-.9-.74-.73.89.91.74-.45.54-2.25-1.84.45-.54.9.74.73-.89-.91-.74.45-.54Z"/><path class="cls-4" d="M57.49,57.76l1,2.91-.75.56-2.53-1.72.6-.46.52.37.8-.6-.21-.6Zm-.73,2,.87.62h0l-.36-1Z"/><path class="cls-4" d="M52.77,60.55l.54-.23L55,61.39h0l-.66-1.53.64-.28,1.15,2.66-.55.24-1.71-1.08h0l.67,1.53-.65.28Z"/><path class="cls-4" d="M53,63.51l-.7.13-.22-1.22h0l-.73,1.39-.81.15.78-1.47L50,61.1l.83-.15.92,1,.22-.4-.15-.78.7-.13Z"/><path class="cls-4" d="M48,63.9l-.46-1.27h0l-.75,1.13L46,63.66l1.28-1.79.12-1,.69.08L48,62l.82,2Z"/><path class="cls-4" d="M45.14,60.28a1.5,1.5,0,1,1-1.81.92A1.36,1.36,0,0,1,45.14,60.28Zm-.82,2.22c.39.14.73-.06.93-.59s.07-.91-.32-1-.74.06-.93.59S43.93,62.36,44.32,62.5Z"/><path class="cls-4" d="M39.94,60.75l1-1.55a1.24,1.24,0,0,1,2,1.37L42,62.12l-.58-.39,1-1.5a.53.53,0,0,0-.87-.59l-1,1.5Z"/><path class="cls-4" d="M37.87,58.76l-1.43-2,.47-.33.51.72,1.91-1.36.4.57-1.91,1.36.51.72Z"/><path class="cls-4" d="M36,56l-.27-.65,1.08-.44-.43-1.06-1.08.44-.26-.65,2.68-1.09.27.64-1.08.44.43,1.06,1.08-.44.26.65Z"/><path class="cls-4" d="M37.66,52.38l-3-.53-.14-.93,2.72-1.41.12.75-.58.28.16,1,.63.1Zm-1.4-1.59-1,.47v0l1.07.16Z"/><path class="cls-4" d="M37.47,46.85l-.06.6-1.77,1v0l1.67.14-.06.71-2.9-.25,0-.61,1.77-1v0L34.5,47.3l.06-.7Z"/><path class="cls-4" d="M34.79,45.66,35,45l1.17.38v0l-.87-1.29.26-.78.91,1.38,1.85-.49-.26.79-1.31.33.25.38.74.24-.22.67Z"/><path class="cls-4" d="M36.78,41.1l1.35.21,0,0-.64-1.21.46-.64,1,2,.79.56-.4.57L38.53,42l-2.2-.26Z"/><path class="cls-4" d="M41.36,40.3a1.51,1.51,0,1,1,0-2A1.37,1.37,0,0,1,41.36,40.3Zm-1.58-1.78c-.31.28-.3.68.08,1.11s.78.49,1.09.21.3-.68-.08-1.11S40.1,38.24,39.78,38.52Z"/><path class="cls-4" d="M43.47,35.48l.87,1.68a1.25,1.25,0,0,1-2.2,1.13l-.86-1.67.63-.32.83,1.61a.51.51,0,0,0,.72.22.5.5,0,0,0,.23-.7l-.84-1.62Z"/></g></g></svg>