<svg xmlns="http://www.w3.org/2000/svg" viewBox="0 0 117.62 81.46"><defs><style>.cls-1{fill:#c5d49b;}.cls-2{fill:#ae7838;}.cls-3,.cls-4{fill:none;stroke:#ae7838;stroke-miterlimit:10;}.cls-3{stroke-width:0.75px;}.cls-4{stroke-width:0.5px;}</style></defs><g id="Layer_2" data-name="Layer 2"><g id="Layer_1-2" data-name="Layer 1"><ellipse class="cls-1" cx="58.81" cy="40.73" rx="58.81" ry="40.73"/><path class="cls-2" d="M24.49,19.84l-.67-1.39,5.82-4.17.68,1.39-2.17,1.55,3.22,6.56-1.48,1.06-3.22-6.55Z"/><path class="cls-2" d="M33.79,22l-2.26-8.55,1.69-.75.93,3.52,3.42-1.53-.94-3.53,1.68-.76,2.26,8.56-1.68.75L38,16.15l-3.42,1.54.94,3.53Z"/><path class="cls-2" d="M42.74,18.23l-1.92.48L43,9.16l2.3-.59L49,16.65l-1.92.49-2.68-6.27-.07,0Zm-.41-3.44,4.53-1.14L47,15.1l-4.53,1.15Z"/><path class="cls-2" d="M57.24,7.05l-.63,8.82L55,16l-3.38-5.2h-.06l-.4,5.55-1.84.18L50,7.73l1.61-.15,3.36,5.2H55l.39-5.55Z"/><path class="cls-2" d="M57.53,15.8l1.85-8.65,1.84.08-.81,3.82h.11l3.95-3.67,2.21.1-4.05,3.73,2.24,4.93-2.2-.1-1.62-3.67L59.9,13.43l-.53,2.45Z"/><path class="cls-2" d="M70.7,8.2l2,.49.44,4,.09,0,3.42-3,2,.49-5.33,4.51-1.23,2.87-1.78-.43,1.23-2.87Z"/><path class="cls-2" d="M84.7,17.63a5.76,5.76,0,0,1-1.77,1.83,4.69,4.69,0,0,1-2.12.71,4.63,4.63,0,0,1-2.14-.36A3.87,3.87,0,0,1,77,18.5a3.08,3.08,0,0,1-.53-1.92,5,5,0,0,1,.84-2.34,5.68,5.68,0,0,1,1.78-1.83,4.53,4.53,0,0,1,2.12-.71,4.49,4.49,0,0,1,2.16.36A3.72,3.72,0,0,1,85,13.36a3.05,3.05,0,0,1,.53,1.93A4.9,4.9,0,0,1,84.7,17.63Zm-1.6-.92a3.54,3.54,0,0,0,.58-1.39,1.6,1.6,0,0,0-.17-1.08,1.73,1.73,0,0,0-.85-.71,2.5,2.5,0,0,0-1.32-.18,2.89,2.89,0,0,0-1.3.55,4.23,4.23,0,0,0-1.13,1.26,3.54,3.54,0,0,0-.59,1.39,1.6,1.6,0,0,0,.19,1.08,1.79,1.79,0,0,0,.86.7,2.43,2.43,0,0,0,1.3.18A2.79,2.79,0,0,0,82,18,4.4,4.4,0,0,0,83.1,16.71Z"/><path class="cls-2" d="M93.47,18.19,95,19.25l-4,4.1a3.53,3.53,0,0,1-1.56.95,3.88,3.88,0,0,1-1.83.07,4.72,4.72,0,0,1-1.84-.8,3.88,3.88,0,0,1-1.27-1.37,2.46,2.46,0,0,1-.24-1.54A2.75,2.75,0,0,1,85,19.2l4-4.11,1.51,1.06-3.92,4a1.64,1.64,0,0,0-.44.77,1.2,1.2,0,0,0,.08.79,1.64,1.64,0,0,0,.6.7,2.09,2.09,0,0,0,.93.38,2.14,2.14,0,0,0,.94-.09,1.88,1.88,0,0,0,.8-.52Z"/><path class="cls-2" d="M22.25,61.72l6.46-6L33.3,59.2l-1.13,1-3.12-2.4L27.51,59.3l2.82,2.16-1.13,1-2.82-2.16-2.67,2.49Z"/><path class="cls-2" d="M38.26,66.54a5.69,5.69,0,0,1-1.87,1.72,4.48,4.48,0,0,1-2.15.6,4.62,4.62,0,0,1-2.12-.47A3.79,3.79,0,0,1,30.52,67a3.05,3.05,0,0,1-.43-2,4.8,4.8,0,0,1,1-2.28A5.78,5.78,0,0,1,32.92,61a4.75,4.75,0,0,1,2.16-.6,4.59,4.59,0,0,1,2.14.48,3.81,3.81,0,0,1,1.59,1.39,3.1,3.1,0,0,1,.42,2A5,5,0,0,1,38.26,66.54Zm-1.55-1a3.76,3.76,0,0,0,.66-1.36,1.66,1.66,0,0,0-.12-1.09,1.75,1.75,0,0,0-.81-.75,2.5,2.5,0,0,0-1.31-.25,3,3,0,0,0-1.33.48,4.55,4.55,0,0,0-1.2,1.2A3.7,3.7,0,0,0,32,65.12a1.56,1.56,0,0,0,.13,1.08,1.78,1.78,0,0,0,.82.75,2.43,2.43,0,0,0,1.29.25,2.74,2.74,0,0,0,1.32-.47A4.41,4.41,0,0,0,36.71,65.53Z"/><path class="cls-2" d="M37.77,70.81l3.81-8,3.31,1a3.32,3.32,0,0,1,1.47.79,2,2,0,0,1,.59,1.2,2.76,2.76,0,0,1-.3,1.48,3.29,3.29,0,0,1-1,1.26,3.19,3.19,0,0,1-1.46.58,4.52,4.52,0,0,1-1.79-.17l-2.22-.65.66-1.35,1.93.56a2.49,2.49,0,0,0,.9.11,1.31,1.31,0,0,0,.69-.25,1.52,1.52,0,0,0,.48-.62A1.22,1.22,0,0,0,45,66a.83.83,0,0,0-.3-.56,2,2,0,0,0-.78-.39l-1.19-.35-3.16,6.6ZM44,68.49l.35,4.23-2-.56-.3-4.23Z"/><path class="cls-2" d="M52.75,65.23l.45,6.7h.08L57,65.6l2,.17L53.9,74.09l-2.37-.2-.82-8.83Z"/><path class="cls-2" d="M61.55,65.51l-1.31,8.75-1.85,0,1.31-8.75Z"/><path class="cls-2" d="M67.22,67.51a1,1,0,0,0-.4-.78,1.45,1.45,0,0,0-1-.18,2.06,2.06,0,0,0-.76.21,1.23,1.23,0,0,0-.49.4,1,1,0,0,0-.19.53.66.66,0,0,0,.07.4.76.76,0,0,0,.29.27,1.54,1.54,0,0,0,.43.17,2.82,2.82,0,0,0,.52.1l.77.11a4.48,4.48,0,0,1,1,.23,2.42,2.42,0,0,1,.79.44,1.8,1.8,0,0,1,.5.69,2.19,2.19,0,0,1,.14,1,2.79,2.79,0,0,1-.48,1.45,3.33,3.33,0,0,1-1.2,1,5.23,5.23,0,0,1-1.83.52,4.54,4.54,0,0,1-1.81-.13,2.13,2.13,0,0,1-1.16-.85A2.54,2.54,0,0,1,62,71.55l1.78-.19a1.13,1.13,0,0,0,.21.71,1.05,1.05,0,0,0,.57.38,2.1,2.1,0,0,0,.84,0,2.52,2.52,0,0,0,.83-.22,1.75,1.75,0,0,0,.55-.44,1.1,1.1,0,0,0,.22-.59.69.69,0,0,0-.14-.48,1.1,1.1,0,0,0-.49-.29,3.61,3.61,0,0,0-.79-.17l-.93-.14A3.32,3.32,0,0,1,63,69.5,1.67,1.67,0,0,1,62.47,68a2.67,2.67,0,0,1,.5-1.45,3.5,3.5,0,0,1,1.22-1.06A4.56,4.56,0,0,1,65.9,65a3.7,3.7,0,0,1,1.67.15,2.18,2.18,0,0,1,1.07.82A2.32,2.32,0,0,1,69,67.32Z"/><path class="cls-2" d="M71.83,64l.36,8.83-1.81.38L70,64.41Z"/><path class="cls-2" d="M72.77,65.42l-.21-1.53,6.82-2.18.22,1.53-2.54.81,1,7.23-1.73.56-1.06-7.23Z"/><path class="cls-2" d="M81.62,60.47,83.89,69l-1.68.75-2.27-8.55Z"/><path class="cls-2" d="M88.64,56.22l3.42,8.16-1.35.85-5.36-3.12-.06,0,2.15,5.14-1.56,1-3.42-8.16,1.37-.86,5.34,3.12.07,0L87.09,57.2Z"/><path class="cls-2" d="M94.61,53.88a1.63,1.63,0,0,0-.5-.27,1.07,1.07,0,0,0-.5-.07,1.24,1.24,0,0,0-.5.15,2.09,2.09,0,0,0-.49.39A2.55,2.55,0,0,0,92,55.22a2.94,2.94,0,0,0,0,1.38,4.07,4.07,0,0,0,.74,1.47,3.8,3.8,0,0,0,1.13,1.06,1.66,1.66,0,0,0,1.12.24,1.75,1.75,0,0,0,1-.59,2.55,2.55,0,0,0,.61-1,2.13,2.13,0,0,0,.11-1,2.18,2.18,0,0,0-.43-1l.29-.22-1.54,1.63-.85-1.12,2.51-2.66.67.9a4.3,4.3,0,0,1,.88,1.94,4.19,4.19,0,0,1-.14,2,4.73,4.73,0,0,1-1.07,1.79,3.75,3.75,0,0,1-1.82,1.12A2.92,2.92,0,0,1,93.3,61a4.69,4.69,0,0,1-1.81-1.55,5.9,5.9,0,0,1-.95-1.75,5,5,0,0,1-.27-1.77,4.49,4.49,0,0,1,.35-1.66,4.64,4.64,0,0,1,.92-1.41A4.11,4.11,0,0,1,92.62,52a3.08,3.08,0,0,1,1.15-.33,2.57,2.57,0,0,1,1.13.16,2.8,2.8,0,0,1,1,.67Z"/><ellipse class="cls-3" cx="58.81" cy="40.73" rx="54.84" ry="37.23"/><path class="cls-4" d="M48.75,42.25l.72,2.82A3.09,3.09,0,0,0,51.7,47.3l2.82.71-2.82.72A3.08,3.08,0,0,0,49.47,51l-.72,2.82L48,51a3.09,3.09,0,0,0-2.23-2.23L43,48l2.82-.71A3.11,3.11,0,0,0,48,45.07Z"/><path class="cls-4" d="M65,27.68l1.19,4.69a5.12,5.12,0,0,0,3.73,3.73l4.69,1.19-4.69,1.19a5.12,5.12,0,0,0-3.73,3.72L65,46.9l-1.19-4.7a5.12,5.12,0,0,0-3.72-3.72l-4.7-1.19,4.7-1.19a5.12,5.12,0,0,0,3.72-3.73Z"/><path class="cls-2" d="M55.58,27.78l.4,1.59a1.74,1.74,0,0,0,1.26,1.25l1.58.4-1.58.4A1.75,1.75,0,0,0,56,32.68l-.4,1.58-.4-1.58a1.75,1.75,0,0,0-1.26-1.26L52.34,31l1.58-.4a1.74,1.74,0,0,0,1.26-1.25Z"/></g></g></svg>